<svg xmlns="http://www.w3.org/2000/svg" xmlns:xlink="http://www.w3.org/1999/xlink" viewBox="0 0 1231.07 965.41"><defs><style>.cls-1{fill:none;}.cls-2{isolation:isolate;}.cls-3{fill:#43457b;}.cls-4{fill:url(#linear-gradient);}.cls-11,.cls-5{fill:#f8ac9b;}.cls-6{fill:url(#linear-gradient-2);}.cls-7{fill:url(#linear-gradient-3);}.cls-8{fill:url(#linear-gradient-4);}.cls-312,.cls-314,.cls-9{fill:#221f1f;}.cls-9{opacity:0.2;}.cls-11,.cls-13,.cls-312,.cls-314,.cls-59,.cls-79,.cls-9{mix-blend-mode:multiply;}.cls-10{fill:url(#linear-gradient-5);}.cls-11,.cls-13,.cls-59{opacity:0.5;}.cls-12{fill:url(#linear-gradient-6);}.cls-13{fill:#a7a9ac;}.cls-14{fill:url(#linear-gradient-7);}.cls-15{fill:url(#linear-gradient-8);}.cls-16,.cls-19{fill:#fff;}.cls-16,.cls-79{opacity:0.3;}.cls-17{fill:url(#linear-gradient-9);}.cls-18{fill:url(#linear-gradient-10);}.cls-20{fill:url(#linear-gradient-11);}.cls-21,.cls-22,.cls-23,.cls-24,.cls-25,.cls-26,.cls-27,.cls-28,.cls-29,.cls-30,.cls-31,.cls-32,.cls-33,.cls-34,.cls-35,.cls-36,.cls-37,.cls-38,.cls-39,.cls-40,.cls-41,.cls-42,.cls-43,.cls-44,.cls-45,.cls-46,.cls-47,.cls-48,.cls-49,.cls-50,.cls-51,.cls-52,.cls-53,.cls-54,.cls-55,.cls-56{fill-rule:evenodd;}.cls-21{fill:url(#linear-gradient-12);}.cls-22{fill:url(#linear-gradient-13);}.cls-23{fill:url(#linear-gradient-14);}.cls-24{fill:url(#linear-gradient-15);}.cls-25{fill:url(#linear-gradient-16);}.cls-26{fill:url(#linear-gradient-17);}.cls-27{fill:url(#linear-gradient-18);}.cls-28{fill:url(#linear-gradient-19);}.cls-29{fill:url(#linear-gradient-20);}.cls-30{fill:url(#linear-gradient-21);}.cls-31{fill:url(#linear-gradient-22);}.cls-32{fill:url(#linear-gradient-23);}.cls-33{fill:url(#linear-gradient-24);}.cls-34{fill:url(#linear-gradient-25);}.cls-35{fill:url(#linear-gradient-26);}.cls-36{fill:url(#linear-gradient-27);}.cls-37{fill:url(#linear-gradient-28);}.cls-38{fill:url(#linear-gradient-29);}.cls-39{fill:url(#linear-gradient-30);}.cls-40{fill:url(#linear-gradient-31);}.cls-41{fill:url(#linear-gradient-32);}.cls-42{fill:url(#linear-gradient-33);}.cls-43{fill:url(#linear-gradient-34);}.cls-44{fill:url(#linear-gradient-35);}.cls-45{fill:url(#linear-gradient-36);}.cls-46{fill:url(#linear-gradient-37);}.cls-47{fill:url(#linear-gradient-38);}.cls-48{fill:url(#linear-gradient-39);}.cls-49{fill:url(#linear-gradient-40);}.cls-50{fill:url(#linear-gradient-41);}.cls-51{fill:url(#linear-gradient-42);}.cls-52{fill:url(#linear-gradient-43);}.cls-53{fill:url(#linear-gradient-44);}.cls-54{fill:url(#linear-gradient-45);}.cls-55{fill:url(#linear-gradient-46);}.cls-56{fill:url(#linear-gradient-47);}.cls-57{fill:#2c325e;}.cls-58{fill:url(#linear-gradient-48);}.cls-60{fill:#e6e6e6;}.cls-61{fill:url(#linear-gradient-49);}.cls-62{fill:url(#linear-gradient-50);}.cls-63{fill:url(#linear-gradient-51);}.cls-64{fill:url(#linear-gradient-52);}.cls-65{fill:url(#linear-gradient-53);}.cls-66{fill:url(#linear-gradient-54);}.cls-67{fill:url(#linear-gradient-55);}.cls-68{fill:url(#linear-gradient-56);}.cls-69{fill:url(#linear-gradient-57);}.cls-70{fill:url(#linear-gradient-58);}.cls-71{fill:url(#linear-gradient-59);}.cls-72{fill:url(#linear-gradient-60);}.cls-73{fill:url(#linear-gradient-61);}.cls-74{fill:url(#linear-gradient-62);}.cls-75{fill:url(#linear-gradient-63);}.cls-76{fill:url(#linear-gradient-64);}.cls-77{fill:url(#linear-gradient-65);}.cls-78{fill:url(#linear-gradient-66);}.cls-80{fill:#fefefe;}.cls-81{fill:#fdfdfd;}.cls-82{fill:#fcfcfd;}.cls-83{fill:#fbfbfc;}.cls-84{fill:#fafafb;}.cls-85{fill:#f9f9fa;}.cls-86{fill:#f8f8fa;}.cls-87{fill:#f7f7f9;}.cls-88{fill:#f6f6f8;}.cls-89{fill:#f5f5f7;}.cls-90{fill:#f4f4f7;}.cls-91{fill:#f3f3f6;}.cls-92{fill:#f2f2f5;}.cls-93{fill:#f1f1f4;}.cls-94{fill:#f0f0f4;}.cls-95{fill:#efeff3;}.cls-96{fill:#eeeef2;}.cls-97{fill:#edeef1;}.cls-98{fill:#ecedf1;}.cls-99{fill:#ebecf0;}.cls-100{fill:#eaebef;}.cls-101{fill:#e9eaee;}.cls-102{fill:#e8e9ed;}.cls-103{fill:#e7e8ed;}.cls-104{fill:#e6e7ec;}.cls-105{fill:#e5e6eb;}.cls-106{fill:#e4e5ea;}.cls-107{fill:#e3e4ea;}.cls-108{fill:#e2e3e9;}.cls-109{fill:#e1e2e8;}.cls-110{fill:#e0e1e7;}.cls-111{fill:#dfe0e7;}.cls-112{fill:#dedfe6;}.cls-113{fill:#dddee5;}.cls-114{fill:#dcdde4;}.cls-115{fill:#dbdce4;}.cls-116{fill:#dadbe3;}.cls-117{fill:#d9dae2;}.cls-118{fill:#d8d9e1;}.cls-119{fill:#d7d8e0;}.cls-120{fill:#d6d7e0;}.cls-121{fill:#d5d6df;}.cls-122{fill:#d4d5de;}.cls-123{fill:#d3d4dd;}.cls-124{fill:#d2d3dd;}.cls-125{fill:#d1d2dc;}.cls-126{fill:#d0d1db;}.cls-127{fill:#cfd0da;}.cls-128{fill:#cecfda;}.cls-129{fill:#cdced9;}.cls-130{fill:#cccdd8;}.cls-131{fill:#cbccd7;}.cls-132{fill:#caccd7;}.cls-133{fill:#c9cbd6;}.cls-134{fill:#c8cad5;}.cls-135{fill:#c7c9d4;}.cls-136{fill:#c6c8d4;}.cls-137{fill:#c5c7d3;}.cls-138{fill:#c4c6d2;}.cls-139{fill:#c3c5d1;}.cls-140{fill:#c2c4d0;}.cls-141{fill:#c1c3d0;}.cls-142{fill:#c0c2cf;}.cls-143{fill:#bfc1ce;}.cls-144{fill:#bec0cd;}.cls-145{fill:#bdbfcd;}.cls-146{fill:#bcbecc;}.cls-147{fill:#bbbdcb;}.cls-148{fill:#babcca;}.cls-149{fill:#b9bbca;}.cls-150{fill:#b8bac9;}.cls-151{fill:#b7b9c8;}.cls-152{fill:#b6b8c7;}.cls-153{fill:#b5b7c7;}.cls-154{fill:#b4b6c6;}.cls-155{fill:#b3b5c5;}.cls-156{fill:#b2b4c4;}.cls-157{fill:#b1b3c3;}.cls-158{fill:#b0b2c3;}.cls-159{fill:#afb1c2;}.cls-160{fill:#aeb0c1;}.cls-161{fill:#adafc0;}.cls-162{fill:#acaec0;}.cls-163{fill:#abadbf;}.cls-164{fill:#aaacbe;}.cls-165{fill:#a9abbd;}.cls-166{fill:#a8aabd;}.cls-167{fill:#a7aabc;}.cls-168{fill:#a6a9bb;}.cls-169{fill:#a5a8ba;}.cls-170{fill:#a4a7ba;}.cls-171{fill:#a3a6b9;}.cls-172{fill:#a2a5b8;}.cls-173{fill:#a1a4b7;}.cls-174{fill:#a0a3b7;}.cls-175{fill:#9fa2b6;}.cls-176{fill:#9ea1b5;}.cls-177{fill:#9da0b4;}.cls-178{fill:#9c9fb3;}.cls-179{fill:#9b9eb3;}.cls-180{fill:#9a9db2;}.cls-181{fill:#999cb1;}.cls-182{fill:#989bb0;}.cls-183{fill:#979ab0;}.cls-184{fill:#9699af;}.cls-185{fill:#9598ae;}.cls-186{fill:#9497ad;}.cls-187{fill:#9396ad;}.cls-188{fill:#9295ac;}.cls-189{fill:#9194ab;}.cls-190{fill:#9093aa;}.cls-191{fill:#8f92aa;}.cls-192{fill:#8e91a9;}.cls-193{fill:#8d90a8;}.cls-194{fill:#8c8fa7;}.cls-195{fill:#8b8ea6;}.cls-196{fill:#8a8da6;}.cls-197{fill:#898ca5;}.cls-198{fill:#888ba4;}.cls-199{fill:#878aa3;}.cls-200{fill:#8689a3;}.cls-201{fill:#8588a2;}.cls-202{fill:#8487a1;}.cls-203{fill:#8387a0;}.cls-204{fill:#8286a0;}.cls-205{fill:#81859f;}.cls-206{fill:#80849e;}.cls-207{fill:#7f839d;}.cls-208{fill:#7e829d;}.cls-209{fill:#7d819c;}.cls-210{fill:#7c809b;}.cls-211{fill:#7b7f9a;}.cls-212{fill:#7a7e9a;}.cls-213{fill:#797d99;}.cls-214{fill:#787c98;}.cls-215{fill:#777b97;}.cls-216{fill:#767a96;}.cls-217{fill:#757996;}.cls-218{fill:#747895;}.cls-219{fill:#737794;}.cls-220{fill:#727693;}.cls-221{fill:#717593;}.cls-222{fill:#707492;}.cls-223{fill:#6f7391;}.cls-224{fill:#6e7290;}.cls-225{fill:#6d7190;}.cls-226{fill:#6c708f;}.cls-227{fill:#6b6f8e;}.cls-228{fill:#6a6e8d;}.cls-229{fill:#696d8d;}.cls-230{fill:#686c8c;}.cls-231{fill:#676b8b;}.cls-232{fill:#666a8a;}.cls-233{fill:#656989;}.cls-234{fill:#646889;}.cls-235{fill:#636788;}.cls-236{fill:#626687;}.cls-237{fill:#616586;}.cls-238{fill:#606586;}.cls-239{fill:#5f6485;}.cls-240{fill:#5e6384;}.cls-241{fill:#5d6283;}.cls-242{fill:#5c6183;}.cls-243{fill:#5b6082;}.cls-244{fill:#5a5f81;}.cls-245{fill:#595e80;}.cls-246{fill:#585d80;}.cls-247{fill:#575c7f;}.cls-248{fill:#565b7e;}.cls-249{fill:#555a7d;}.cls-250{fill:#54597d;}.cls-251{fill:#53587c;}.cls-252{fill:#52577b;}.cls-253{fill:#51567a;}.cls-254{fill:#505579;}.cls-255{fill:#4f5479;}.cls-256{fill:#4e5378;}.cls-257{fill:#4d5277;}.cls-258{fill:#4c5176;}.cls-259{fill:#4b5076;}.cls-260{fill:#4a4f75;}.cls-261{fill:#494e74;}.cls-262{fill:#484d73;}.cls-263{fill:#474c73;}.cls-264{fill:#464b72;}.cls-265{fill:#454a71;}.cls-266{fill:#444970;}.cls-267{fill:#434870;}.cls-268{fill:#42476f;}.cls-269{fill:#41466e;}.cls-270{fill:#40456d;}.cls-271{fill:#3f446c;}.cls-272{fill:#3e436c;}.cls-273{fill:#3d436b;}.cls-274{fill:#3c426a;}.cls-275{fill:#3b4169;}.cls-276{fill:#3a4069;}.cls-277{fill:#393f68;}.cls-278{fill:#383e67;}.cls-279{fill:#373d66;}.cls-280{fill:#363c66;}.cls-281{fill:#353b65;}.cls-282{fill:#343a64;}.cls-283{fill:#333963;}.cls-284{fill:#323863;}.cls-285{fill:#313762;}.cls-286{fill:#303661;}.cls-287{fill:#2f3560;}.cls-288{fill:#2e3460;}.cls-289{fill:#2d335f;}.cls-290{fill:url(#linear-gradient-67);}.cls-291{clip-path:url(#clip-path);}.cls-292{fill:#ffd5aa;}.cls-293{fill:url(#linear-gradient-68);}.cls-294{fill:url(#linear-gradient-69);}.cls-295{fill:url(#linear-gradient-70);}.cls-296{fill:url(#linear-gradient-71);}.cls-297{fill:url(#linear-gradient-72);}.cls-298{fill:url(#linear-gradient-73);}.cls-299{fill:url(#linear-gradient-74);}.cls-300{fill:url(#linear-gradient-75);}.cls-301{fill:url(#linear-gradient-76);}.cls-302{fill:url(#linear-gradient-77);}.cls-303{fill:url(#linear-gradient-78);}.cls-304{clip-path:url(#clip-path-2);}.cls-305{fill:url(#linear-gradient-79);}.cls-306{fill:url(#linear-gradient-80);}.cls-307{fill:#ffa397;}.cls-308{fill:url(#linear-gradient-81);}.cls-309{fill:url(#linear-gradient-82);}.cls-310{fill:url(#linear-gradient-83);}.cls-311{fill:url(#linear-gradient-84);}.cls-312{opacity:0.1;}.cls-313{fill:url(#linear-gradient-85);}.cls-314{opacity:0.15;}.cls-315{fill:url(#linear-gradient-86);}</style><linearGradient id="linear-gradient" x1="241.25" y1="646.46" x2="236.26" y2="649.44" gradientUnits="userSpaceOnUse"><stop offset="0" stop-color="#c7e9f9"/><stop offset="1" stop-color="#f1f9fe"/></linearGradient><linearGradient id="linear-gradient-2" x1="2388.51" y1="755.77" x2="2398.58" y2="882.83" gradientTransform="matrix(-1, 0, 0, 1, 2710.82, 0)" gradientUnits="userSpaceOnUse"><stop offset="0" stop-color="#3a3c63"/><stop offset="1" stop-color="#40447b"/></linearGradient><linearGradient id="linear-gradient-3" x1="2471.34" y1="978.38" x2="2470.56" y2="946.9" xlink:href="#linear-gradient-2"/><linearGradient id="linear-gradient-4" x1="2396.19" y1="977.81" x2="2395.41" y2="946.34" xlink:href="#linear-gradient-2"/><linearGradient id="linear-gradient-5" x1="2457.82" y1="745.91" x2="2419.17" y2="833.93" xlink:href="#linear-gradient-2"/><linearGradient id="linear-gradient-6" x1="356.37" y1="686.52" x2="199.42" y2="690.78" gradientUnits="userSpaceOnUse"><stop offset="0" stop-color="#6443d7"/><stop offset="1" stop-color="#ac5df9"/></linearGradient><linearGradient id="linear-gradient-7" x1="10699.65" y1="858.94" x2="10814.74" y2="858.94" gradientTransform="translate(-9752.66)" gradientUnits="userSpaceOnUse"><stop offset="0" stop-color="#5e6398"/><stop offset="1" stop-color="#292e6f"/></linearGradient><linearGradient id="linear-gradient-8" x1="2896.77" y1="800.19" x2="3018.45" y2="800.19" gradientTransform="translate(-1860.31)" xlink:href="#linear-gradient-6"/><linearGradient id="linear-gradient-9" x1="-4027.07" y1="889.24" x2="-3980.57" y2="933.66" gradientTransform="matrix(-1, 0, 0, 1, -2941.16, 0)" gradientUnits="userSpaceOnUse"><stop offset="0" stop-color="#febf00"/><stop offset="0.98" stop-color="#ffdf00"/></linearGradient><linearGradient id="linear-gradient-10" x1="2969.07" y1="877.97" x2="3100.24" y2="877.97" gradientTransform="translate(-1860.31)" gradientUnits="userSpaceOnUse"><stop offset="0" stop-color="#fb40b7"/><stop offset="1" stop-color="#c639af"/></linearGradient><linearGradient id="linear-gradient-11" x1="720.44" y1="64.22" x2="858.79" y2="64.22" gradientUnits="userSpaceOnUse"><stop offset="0" stop-color="#6466d7"/><stop offset="1" stop-color="#ac81f9"/></linearGradient><linearGradient id="linear-gradient-12" x1="884.94" y1="92.28" x2="894.33" y2="92.28" xlink:href="#linear-gradient-11"/><linearGradient id="linear-gradient-13" x1="863.28" y1="85.53" x2="872.65" y2="85.53" xlink:href="#linear-gradient-11"/><linearGradient id="linear-gradient-14" x1="850.32" y1="79.22" x2="859.67" y2="79.22" xlink:href="#linear-gradient-11"/><linearGradient id="linear-gradient-15" x1="913.07" y1="115.14" x2="922.45" y2="115.14" xlink:href="#linear-gradient-11"/><linearGradient id="linear-gradient-16" x1="909.9" y1="107.06" x2="919.3" y2="107.06" xlink:href="#linear-gradient-11"/><linearGradient id="linear-gradient-17" x1="897.61" y1="99.49" x2="907.01" y2="99.49" xlink:href="#linear-gradient-11"/><linearGradient id="linear-gradient-18" x1="955.17" y1="143.36" x2="964.22" y2="143.36" xlink:href="#linear-gradient-11"/><linearGradient id="linear-gradient-19" x1="944.72" y1="133.21" x2="953.96" y2="133.21" xlink:href="#linear-gradient-11"/><linearGradient id="linear-gradient-20" x1="933.63" y1="123.89" x2="942.96" y2="123.89" xlink:href="#linear-gradient-11"/><linearGradient id="linear-gradient-21" x1="978.12" y1="180.65" x2="984.53" y2="180.65" xlink:href="#linear-gradient-11"/><linearGradient id="linear-gradient-22" x1="972.56" y1="166.97" x2="980.5" y2="166.97" xlink:href="#linear-gradient-11"/><linearGradient id="linear-gradient-23" x1="955.83" y1="154.61" x2="964.51" y2="154.61" xlink:href="#linear-gradient-11"/><linearGradient id="linear-gradient-24" x1="966.43" y1="222.05" x2="975.27" y2="222.05" xlink:href="#linear-gradient-11"/><linearGradient id="linear-gradient-25" x1="974.49" y1="209.65" x2="982.23" y2="209.65" xlink:href="#linear-gradient-11"/><linearGradient id="linear-gradient-26" x1="979.25" y1="195.69" x2="984.96" y2="195.69" xlink:href="#linear-gradient-11"/><linearGradient id="linear-gradient-27" x1="932.43" y1="249.3" x2="941.84" y2="249.3" xlink:href="#linear-gradient-11"/><linearGradient id="linear-gradient-28" x1="935.92" y1="241.69" x2="945.34" y2="241.69" xlink:href="#linear-gradient-11"/><linearGradient id="linear-gradient-29" x1="947.31" y1="232.66" x2="956.56" y2="232.66" xlink:href="#linear-gradient-11"/><linearGradient id="linear-gradient-30" x1="883.64" y1="266.26" x2="892.8" y2="266.26" xlink:href="#linear-gradient-11"/><linearGradient id="linear-gradient-31" x1="897.26" y1="261.46" x2="906.53" y2="261.46" xlink:href="#linear-gradient-11"/><linearGradient id="linear-gradient-32" x1="919.4" y1="255.88" x2="928.77" y2="255.88" xlink:href="#linear-gradient-11"/><linearGradient id="linear-gradient-33" x1="841.68" y1="277.16" x2="850.56" y2="277.16" xlink:href="#linear-gradient-11"/><linearGradient id="linear-gradient-34" x1="864.63" y1="274.03" x2="873.61" y2="274.03" xlink:href="#linear-gradient-11"/><linearGradient id="linear-gradient-35" x1="878.57" y1="270.44" x2="887.63" y2="270.44" xlink:href="#linear-gradient-11"/><linearGradient id="linear-gradient-36" x1="798.92" y1="284.21" x2="807.54" y2="284.21" xlink:href="#linear-gradient-11"/><linearGradient id="linear-gradient-37" x1="813.21" y1="282.2" x2="821.91" y2="282.2" xlink:href="#linear-gradient-11"/><linearGradient id="linear-gradient-38" x1="827.41" y1="279.88" x2="836.19" y2="279.88" xlink:href="#linear-gradient-11"/><linearGradient id="linear-gradient-39" x1="755.78" y1="288.51" x2="764.18" y2="288.51" xlink:href="#linear-gradient-11"/><linearGradient id="linear-gradient-40" x1="770.17" y1="287.33" x2="778.64" y2="287.33" xlink:href="#linear-gradient-11"/><linearGradient id="linear-gradient-41" x1="784.48" y1="285.91" x2="793.02" y2="285.91" xlink:href="#linear-gradient-11"/><linearGradient id="linear-gradient-42" x1="712.48" y1="290.66" x2="720.68" y2="290.66" xlink:href="#linear-gradient-11"/><linearGradient id="linear-gradient-43" x1="726.91" y1="290.16" x2="735.17" y2="290.16" xlink:href="#linear-gradient-11"/><linearGradient id="linear-gradient-44" x1="741.28" y1="289.45" x2="749.61" y2="289.45" xlink:href="#linear-gradient-11"/><linearGradient id="linear-gradient-45" x1="669.01" y1="290.84" x2="677.19" y2="290.84" xlink:href="#linear-gradient-11"/><linearGradient id="linear-gradient-46" x1="683.53" y1="291.01" x2="691.62" y2="291.01" xlink:href="#linear-gradient-11"/><linearGradient id="linear-gradient-47" x1="697.95" y1="290.94" x2="706.08" y2="290.94" xlink:href="#linear-gradient-11"/><linearGradient id="linear-gradient-48" x1="366.13" y1="539.58" x2="789.84" y2="539.58" xlink:href="#linear-gradient"/><linearGradient id="linear-gradient-49" x1="1021.2" y1="533.99" x2="1107.74" y2="533.99" gradientUnits="userSpaceOnUse"><stop offset="0" stop-color="#a2ed94"/><stop offset="1" stop-color="#69c7b3"/></linearGradient><linearGradient id="linear-gradient-50" x1="520.01" y1="33.91" x2="623.83" y2="33.91" gradientTransform="matrix(1, 0, 0, 1, 0, 0)" xlink:href="#linear-gradient-9"/><linearGradient id="linear-gradient-51" x1="537.6" y1="43.68" x2="603.71" y2="43.68" xlink:href="#linear-gradient"/><linearGradient id="linear-gradient-52" x1="664.57" y1="75.87" x2="664.57" y2="75.87" gradientUnits="userSpaceOnUse"><stop offset="0" stop-color="#fb7db7"/><stop offset="1" stop-color="#fdacaf"/></linearGradient><linearGradient id="linear-gradient-53" x1="489.37" y1="75.87" x2="489.37" y2="75.87" xlink:href="#linear-gradient-52"/><linearGradient id="linear-gradient-54" x1="524.14" y1="72.6" x2="637.42" y2="72.6" gradientTransform="matrix(1, 0, 0, 1, 0, 0)" xlink:href="#linear-gradient-9"/><linearGradient id="linear-gradient-55" x1="8.86" y1="793.16" x2="133.08" y2="793.16" xlink:href="#linear-gradient-49"/><linearGradient id="linear-gradient-56" x1="79.58" y1="931.3" x2="47.04" y2="898.76" xlink:href="#linear-gradient-49"/><linearGradient id="linear-gradient-57" x1="-29.89" y1="85.89" x2="77.37" y2="85.89" gradientTransform="translate(525.3 220.47) rotate(-15.2)" xlink:href="#linear-gradient-9"/><linearGradient id="linear-gradient-58" x1="-3.12" y1="114.78" x2="37.12" y2="114.78" gradientTransform="translate(534.16 220.47) rotate(-15.2)" xlink:href="#linear-gradient-10"/><linearGradient id="linear-gradient-59" x1="208.79" y1="236.6" x2="318.33" y2="236.6" gradientTransform="matrix(1, 0, 0, 1, 0, 0)" xlink:href="#linear-gradient-7"/><linearGradient id="linear-gradient-60" x1="225.32" y1="236.98" x2="304.27" y2="236.98" gradientTransform="matrix(1, 0, 0, 1, 0, 0)" xlink:href="#linear-gradient-10"/><linearGradient id="linear-gradient-61" x1="104.76" y1="417.88" x2="214.3" y2="417.88" gradientTransform="matrix(1, 0, 0, 1, 0, 0)" xlink:href="#linear-gradient-7"/><linearGradient id="linear-gradient-62" x1="141.85" y1="414.64" x2="197.5" y2="414.64" gradientUnits="userSpaceOnUse"><stop offset="0" stop-color="#3393eb"/><stop offset="1" stop-color="#37bedf"/></linearGradient><linearGradient id="linear-gradient-63" x1="116.34" y1="424.55" x2="127.59" y2="424.55" xlink:href="#linear-gradient-62"/><linearGradient id="linear-gradient-64" x1="825.5" y1="420.84" x2="935.04" y2="420.84" gradientTransform="matrix(1, 0, 0, 1, 0, 0)" xlink:href="#linear-gradient-7"/><linearGradient id="linear-gradient-65" x1="840.27" y1="415.68" x2="908.03" y2="415.68" gradientTransform="matrix(1, 0, 0, 1, 0, 0)" xlink:href="#linear-gradient-9"/><linearGradient id="linear-gradient-66" x1="236.79" y1="499.62" x2="345.45" y2="499.62" gradientTransform="matrix(1, 0, 0, 1, 0, 0)" xlink:href="#linear-gradient-2"/><linearGradient id="linear-gradient-67" x1="578.5" y1="486.92" x2="578.5" y2="372.22" gradientTransform="matrix(1, 0, 0, 1, 0, 0)" xlink:href="#linear-gradient-10"/><clipPath id="clip-path" transform="translate(-8.86)"><circle class="cls-1" cx="468.44" cy="435.7" r="36.42"/></clipPath><linearGradient id="linear-gradient-68" x1="439.29" y1="474.17" x2="497.59" y2="474.17" xlink:href="#linear-gradient-52"/><linearGradient id="linear-gradient-69" x1="523.08" y1="402.9" x2="554.11" y2="402.9" gradientTransform="matrix(1, 0, 0, 1, 0, 0)" xlink:href="#linear-gradient-9"/><linearGradient id="linear-gradient-70" x1="559.12" y1="402.9" x2="590.16" y2="402.9" gradientTransform="matrix(1, 0, 0, 1, 0, 0)" xlink:href="#linear-gradient-9"/><linearGradient id="linear-gradient-71" x1="595.17" y1="402.9" x2="626.2" y2="402.9" gradientTransform="matrix(1, 0, 0, 1, 0, 0)" xlink:href="#linear-gradient-9"/><linearGradient id="linear-gradient-72" x1="631.21" y1="402.9" x2="662.25" y2="402.9" gradientTransform="matrix(1, 0, 0, 1, 0, 0)" xlink:href="#linear-gradient-9"/><linearGradient id="linear-gradient-73" x1="667.26" y1="402.9" x2="698.3" y2="402.9" gradientTransform="matrix(1, 0, 0, 1, 0, 0)" xlink:href="#linear-gradient-9"/><linearGradient id="linear-gradient-74" x1="578.5" y1="620.59" x2="578.5" y2="505.9" xlink:href="#linear-gradient-62"/><linearGradient id="linear-gradient-75" x1="523.08" y1="536.58" x2="554.11" y2="536.58" gradientTransform="matrix(1, 0, 0, 1, 0, 0)" xlink:href="#linear-gradient-9"/><linearGradient id="linear-gradient-76" x1="559.01" y1="536.58" x2="590.05" y2="536.58" gradientTransform="matrix(1, 0, 0, 1, 0, 0)" xlink:href="#linear-gradient-9"/><linearGradient id="linear-gradient-77" x1="594.95" y1="536.58" x2="625.99" y2="536.58" gradientTransform="matrix(1, 0, 0, 1, 0, 0)" xlink:href="#linear-gradient-9"/><linearGradient id="linear-gradient-78" x1="630.89" y1="536.58" x2="661.92" y2="536.58" gradientTransform="matrix(1, 0, 0, 1, 0, 0)" xlink:href="#linear-gradient-9"/><clipPath id="clip-path-2" transform="translate(-8.86)"><circle class="cls-1" cx="468.59" cy="569.81" r="36.2"/></clipPath><linearGradient id="linear-gradient-79" x1="439.61" y1="606.3" x2="497.58" y2="606.3" xlink:href="#linear-gradient-62"/><linearGradient id="linear-gradient-80" x1="684.13" y1="556.37" x2="751.89" y2="556.37" gradientTransform="matrix(1, 0, 0, 1, 0, 0)" xlink:href="#linear-gradient-9"/><linearGradient id="linear-gradient-81" x1="-2520.74" y1="971.28" x2="-2522.63" y2="942.08" gradientTransform="matrix(-1, 0, 0, 1, -1610.19, 0)" xlink:href="#linear-gradient-2"/><linearGradient id="linear-gradient-82" x1="-2428.35" y1="977.53" x2="-2429.12" y2="946.48" gradientTransform="matrix(-1, 0, 0, 1, -1610.19, 0)" xlink:href="#linear-gradient-2"/><linearGradient id="linear-gradient-83" x1="-2482.03" y1="954.61" x2="-2482.03" y2="750.42" gradientTransform="matrix(-1, 0, 0, 1, -1610.19, 0)" xlink:href="#linear-gradient-7"/><linearGradient id="linear-gradient-84" x1="-2664.51" y1="844.12" x2="-2204.17" y2="844.12" gradientTransform="matrix(-1, 0, 0, 1, -1610.19, 0)" xlink:href="#linear-gradient-2"/><linearGradient id="linear-gradient-85" x1="-2321.12" y1="632.76" x2="-2573.54" y2="702.44" gradientTransform="matrix(-1, 0, 0, 1, -1610.19, 0)" xlink:href="#linear-gradient-49"/><linearGradient id="linear-gradient-86" x1="-2534.55" y1="766.73" x2="-2429.51" y2="766.73" gradientTransform="matrix(-1, 0, 0, 1, -1610.19, 0)" xlink:href="#linear-gradient-2"/></defs><title>175</title><g class="cls-2"><g id="Layer_1" data-name="Layer 1"><path class="cls-3" d="M245.23,659.87l-13.88-21.78a1.52,1.52,0,0,0-1.42-.68,1.49,1.49,0,0,0-.69.22,1.53,1.53,0,0,0-.47,2.12l14.39,22.57,2.59-1.65Z" transform="translate(-8.86)"/><path class="cls-4" d="M244.46,660.36l.77-.49-13.88-21.78a1.52,1.52,0,0,0-1.42-.68,1.48,1.48,0,0,0,.15.38Z" transform="translate(-8.86)"/><path class="cls-5" d="M253.18,661.31c-.81-1.89-2.78-3-4.61-3.87L239.65,653c-1.23-.62-2.84-1.19-3.87-.27a2.59,2.59,0,0,0-.19,3.15,16.85,16.85,0,0,0,2.26,2.54A3.6,3.6,0,0,1,239,661.5c-.24,1-1.12,1.76-1.14,2.76a10.21,10.21,0,0,0,.41,1.8c.17,1.05-.34,2.14-.14,3.18a4.8,4.8,0,0,0,2,2.59l3.64,2.94c1.83,1.48,4.25,3,6.35,1.94a5.57,5.57,0,0,0,2.14-2.5c1.06-2,2.3-4.44,2-6.67C254,665.72,253.91,663,253.18,661.31Z" transform="translate(-8.86)"/><path class="cls-6" d="M344.88,744.47s4.09,19.93-9.8,54.22.5,144.78.5,144.78h-12s-39.62-89.56-34-128.64S332.91,734.86,344.88,744.47Z" transform="translate(-8.86)"/><polygon class="cls-5" points="251.24 949.13 251.6 944.03 240.45 944.03 240.16 949.13 251.24 949.13"/><path class="cls-7" d="M245,949.13s-1.77,3.69-3.47,5-21.49,4-23,6.81a2.94,2.94,0,0,0,1.26,4.33c.22,0,41.57.4,41.94,0s-.15-16.1-.15-16.1Z" transform="translate(-8.86)"/><polygon class="cls-5" points="326.39 948.56 325.71 943.46 315.61 943.46 316.56 948.56 326.39 948.56"/><path class="cls-8" d="M320.1,948.56s-1.77,3.69-3.47,5-21.49,4-23,6.81a2.94,2.94,0,0,0,1.26,4.33c.22,0,41.57.4,41.94,0s-.15-16.1-.15-16.1Z" transform="translate(-8.86)"/><path class="cls-9" d="M324.94,789.88h0S313.86,817.16,306.89,825s-13.78,27-13.78,27-1.36-5.63-2.78-12.53c2.53-5.64,5.11-10.1,7.68-12.8C306.12,818.2,316.2,804.29,324.94,789.88Z" transform="translate(-8.86)"/><path class="cls-10" d="M254.49,831.33c2.6-30.25,28.77-85.18,28.77-85.18s32.36-12,61.62-1.69c-1,10.28-9.5,28.21-19.94,45.42C316.2,804.29,306.12,818.2,298,826.7c-2.58,2.7-5.15,7.16-7.68,12.8-14.94,33.33-27.17,104.87-27.17,104.87l-15.72-.43S251.89,861.58,254.49,831.33Z" transform="translate(-8.86)"/><path class="cls-3" d="M314.69,583.87a26,26,0,0,1,.69,9.22,22.23,22.23,0,0,0-.14,3.35c.06,1.65.87,8.24-.48,9.2-.91.65-1.54,5-2.57,4.59s-1.51-11.21-2.29-12c-3.84-4-5.68,2.3-12.28-10.89-1.37-2.74-6.16-.78-8.93.48-3,1.37-4.46,4.75-7.38,6-5.55,2.33-13.71.86-18.35-2.72a15.15,15.15,0,0,1-6-11.52,12.89,12.89,0,0,1,6.17-11.21,5.7,5.7,0,0,1,2.91-.89,8.72,8.72,0,0,1,2.41.56,26.39,26.39,0,0,0,11.35,1c4.71-.61,9.16-2.48,13.76-3.66,2.66-.68,5.56-1.11,8.07,0,3.18,1.39,7.05,6.24,9.21,9.86A25.18,25.18,0,0,1,314.69,583.87Z" transform="translate(-8.86)"/><path class="cls-5" d="M297.88,621.34A20.73,20.73,0,0,0,302,619a26.93,26.93,0,0,0,3.72-3.2,17.3,17.3,0,0,0,3.23-5.37,15.84,15.84,0,0,0,.5-2.05,20.24,20.24,0,0,0,.31-2.82,60.87,60.87,0,0,1,.33-8.14l4.32,13.23,10.46,8.17-16,12.33-4.06-3.6-7-6.18Z" transform="translate(-8.86)"/><path class="cls-5" d="M276,602.26s2.85,5.11,2.9,8.43-.25,6,1.73,5.73a49.19,49.19,0,0,0,6.79-2.26l-4.57-10.62Z" transform="translate(-8.86)"/><path class="cls-11" d="M297.88,621.34A20.73,20.73,0,0,0,302,619a26.93,26.93,0,0,0,3.72-3.2,17.3,17.3,0,0,0,3.23-5.37,15.84,15.84,0,0,0,.5-2.05h0s.75,2.09-2.46,9.64c-.82,1.93-5.15,6.32-5.43,6.66l-3.72-3.3Z" transform="translate(-8.86)"/><path class="cls-5" d="M271.55,595.61c-3.21-3.56-1.07-3.73,1.5-5.32,2.4-1.48,5.06-4.46,7-5.84a55.46,55.46,0,0,1,6.41-3.79c3.8-2,7.12.85,8.86,3l.09.11c1.64,2.07,4.79,7.35,6.53,8.72s-.75-8,2.17-10.26a4.62,4.62,0,0,1,2.19-1.09,4.77,4.77,0,0,1,4.65,2.09,9.54,9.54,0,0,1,1,7.14c-.47,2.38-1.4,4.64-1.78,7h0a60.87,60.87,0,0,0-.33,8.14,20.24,20.24,0,0,1-.31,2.82,15.84,15.84,0,0,1-.5,2.05,17.3,17.3,0,0,1-3.23,5.37A26.93,26.93,0,0,1,302,619a20.73,20.73,0,0,1-4.15,2.36,8.07,8.07,0,0,1-6.56.09c-3.49-1.4-6-4.87-8.8-8.18C277.94,607.86,276.26,600.85,271.55,595.61Z" transform="translate(-8.86)"/><path class="cls-11" d="M283.66,585.93c-5.39,2.09-13.9,6.78-10.18,4.09,2.4-1.48,4.63-4.18,6.57-5.57a55.45,55.45,0,0,1,6.41-3.79c3.8-2,7.12.85,8.86,3l.09.11C292.93,582.64,288.91,583.89,283.66,585.93Z" transform="translate(-8.86)"/><path class="cls-12" d="M347.28,660.18c-5.3-29-25.47-47.2-25.47-47.2a66.14,66.14,0,0,0-17.94,11.66c-5.72,5.4-17.18,38.78-23.35,71.09-9.32-5.19-18-14.76-26.31-26.56l-10,9.81c7.26,14.47,19.65,31.72,36.3,39.37a153.49,153.49,0,0,0-.18,16.53c2.12,37.48,53.84,28.73,62,17.93C351.13,741.15,352.59,689.18,347.28,660.18Z" transform="translate(-8.86)"/><path class="cls-13" d="M279.55,718.23s18.17-.76,27.18-7.13,19.33-44.7,20.55-48.79c1.72-5.79,2.48-26.52,2.48-26.52s3.95,17.57,3.89,28.29c-.21,39.16-17,48.25-23.16,50.6C298,719.45,279.55,718.23,279.55,718.23Z" transform="translate(-8.86)"/><path class="cls-14" d="M960.9,839.71c-4.41,8.13-13.92,2.44-13.92,2.44s.55-2.68,4.81-4.92c3.18-1.67,7.76-.29,9.37.3l5.24-.14h.08c1.17.06,2.32.15,3.48.26-15-5.28-7.91-22.95-7.91-22.95s4.7.19,9.67,6.82c4,5.32,2.42,14.35,2,16.56a87.2,87.2,0,0,1,17.23,4.36,29.66,29.66,0,0,1-2.18-2.35c-5.7-6.83-3.19-19.77-3.19-19.77,20.42,2.62,16.35,21.83,15.14,26.23a127.84,127.84,0,0,1,18.46,11,26.81,26.81,0,0,1-4-8.88c-2.58-9.61,6.07-21.58,6.07-21.58,20,12.59,5.62,30.79,2.79,34,3.59,2.77,6.89,5.57,9.85,8.25,3.25,2.95,6.25,5.89,9,8.71-1-2.68-1.84-6.91-1-13,1.43-10.79,15.19-19.24,15.19-19.24,14.58,20.64-6.28,32.88-11.17,35.38a171.59,171.59,0,0,1,14.7,18.05l-1.81,1.22a154,154,0,0,0-9.8-12.51c-7.73,24.47-34.33,12-34.33,12s.66-6.68,10.52-13.22c6.36-4.22,15.83-3.12,20.92-2.09a188.31,188.31,0,0,0-13.68-13.77c-1.73-1.57-3.59-3.18-5.54-4.79-6.85,23.09-31.56,11.54-31.56,11.54s.6-6.11,9.62-12.09c5.67-3.76,14.05-2.9,18.79-2a135.72,135.72,0,0,0-19.35-12.78c-4.23,21.83-27.47,13-27.47,13s.13-5.48,7.76-11.42c5-3.89,12.93-3.51,17.1-3a93.88,93.88,0,0,0-25-8.69c.37,19.81-21.08,16-21.08,16s-.76-4.64,4.73-10.85c4.27-4.83,13-5.25,15.61-5.26a76.06,76.06,0,0,0-9.54-1.09Z" transform="translate(-8.86)"/><path class="cls-15" d="M1134.14,957.44s44.51-100.48,12.3-193.85-110-120.65-110-120.65,46.16,53.45,19.37,136.83c-25.34,78.85,23,177.67,23,177.67Z" transform="translate(-8.86)"/><path class="cls-16" d="M1118.39,957.44s11.4-204.42-36.83-258.19c43.87,67.77,25.6,258.19,25.6,258.19Z" transform="translate(-8.86)"/><path class="cls-17" d="M1041.93,957.44h47.61c-1.89-8.39-8.75-33.73-25.83-52.85-20.76-23.23-47-21-47-21s14.25,15.63,16.43,43.71C1034.06,938.52,1037.85,949,1041.93,957.44Z" transform="translate(-8.86)"/><path class="cls-18" d="M1152,846.3c-34.66,45.19-42.44,104.11-43.26,111.14h67.38c17-15.74,38-41.2,38.12-71.82.29-54.68,25.67-87.11,25.67-87.11S1188.94,798.17,1152,846.3Z" transform="translate(-8.86)"/><path class="cls-16" d="M1074.11,957.44h3.57c-6.78-15.52-24.07-51.89-40.26-59.29C1053.25,908.77,1067.82,941.67,1074.11,957.44Z" transform="translate(-8.86)"/><path class="cls-16" d="M1130.06,957.44h7c8.21-27.13,33.29-102.69,64.94-127.64C1169.3,847.92,1138.77,931.78,1130.06,957.44Z" transform="translate(-8.86)"/><rect class="cls-3" x="1005.34" y="957.44" width="200.9" height="7.97"/><polygon class="cls-19" points="849.69 139.67 864.44 147.74 849.69 155.81 841.62 170.56 833.55 155.81 818.8 147.74 833.55 139.67 841.62 124.92 849.69 139.67"/><polygon class="cls-19" points="826.09 190.04 835.38 195.12 826.09 200.19 821.01 209.48 815.93 200.19 806.65 195.12 815.93 190.04 821.01 180.75 826.09 190.04"/><polygon class="cls-19" points="879.83 178.18 893.97 185.91 879.83 193.65 872.09 207.79 864.36 193.65 850.22 185.91 864.36 178.18 872.09 164.04 879.83 178.18"/><polygon class="cls-19" points="431.06 40.72 445.81 48.78 431.06 56.85 422.99 71.6 414.93 56.85 400.17 48.78 414.93 40.72 422.99 25.96 431.06 40.72"/><polygon class="cls-19" points="407.46 91.08 416.75 96.16 407.46 101.24 402.38 110.52 397.31 101.24 388.02 96.16 397.31 91.08 402.38 81.8 407.46 91.08"/><polygon class="cls-19" points="461.2 79.22 475.34 86.96 461.2 94.69 453.46 108.83 445.73 94.69 431.59 86.96 445.73 79.22 453.46 65.08 461.2 79.22"/><polygon class="cls-20" points="845.63 43.6 720.44 14.57 814.45 113.87 825.13 80.63 848.97 74.23 756.92 29.43 839.07 59.6 846.41 54.75 858.79 46.58 845.63 43.6"/><path class="cls-21" d="M894.33,92.12,892,96.33q-3.5-2-7-3.85l2.28-4.25Q890.8,90.13,894.33,92.12Z" transform="translate(-8.86)"/><polygon class="cls-22" points="865.42 81.55 872.65 85.22 870.44 89.51 863.28 85.87 865.42 81.55"/><polygon class="cls-23" points="852.29 75.33 859.67 78.76 857.59 83.11 850.32 79.73 852.29 75.33"/><polygon class="cls-24" points="913.07 114.81 915.8 110.84 922.45 115.55 919.61 119.44 913.07 114.81"/><path class="cls-25" d="M912.46,102.85c2.28,1.47,4.6,2.87,6.84,4.4l-2.66,4c-2.21-1.51-4.5-2.89-6.75-4.34Z" transform="translate(-8.86)"/><path class="cls-26" d="M907,99.5l-2.5,4.13c-2.28-1.4-4.59-2.75-6.91-4.09L900,95.36C902.37,96.71,904.7,98.08,907,99.5Z" transform="translate(-8.86)"/><path class="cls-27" d="M958.62,138.76c1.86,2,3.81,4,5.6,6L960.59,148c-1.73-2-3.61-3.89-5.41-5.84Z" transform="translate(-8.86)"/><path class="cls-28" d="M954,134.21l-3.32,3.5c-1.89-1.88-3.92-3.6-5.92-5.36l3.16-3.64C949.94,130.51,952,132.28,954,134.21Z" transform="translate(-8.86)"/><path class="cls-29" d="M933.63,123.32l2.93-3.83c2.19,1.6,4.28,3.36,6.4,5.07l-3.06,3.73C937.83,126.62,935.79,124.9,933.63,123.32Z" transform="translate(-8.86)"/><path class="cls-30" d="M978.12,177.53l4.62-1.37c.75,2.73,1.32,5.55,1.79,8.35l-4.78.62C979.31,182.59,978.8,180,978.12,177.53Z" transform="translate(-8.86)"/><path class="cls-31" d="M972.56,164.63l4.21-2.35c1.39,2.42,2.48,5,3.73,7.54l-4.45,1.86C974.88,169.33,973.87,166.9,972.56,164.63Z" transform="translate(-8.86)"/><polygon class="cls-32" points="955.83 152.89 959.63 149.92 964.51 156.64 960.49 159.3 955.83 152.89"/><path class="cls-33" d="M975.27,220.11c-1.68,2.25-3.46,4.41-5.2,6.61l-3.64-3.16c1.62-2.06,3.29-4.09,4.86-6.18Z" transform="translate(-8.86)"/><path class="cls-34" d="M977.68,205l4.55,1.59-1.65,4a22.67,22.67,0,0,1-1.84,3.84l-4.25-2.28a19.56,19.56,0,0,0,1.68-3.51Z" transform="translate(-8.86)"/><path class="cls-35" d="M979.8,195.23l.33-3.86,4.82.06-.36,4.3A20.23,20.23,0,0,1,984,200l-4.73-.94A17.08,17.08,0,0,0,979.8,195.23Z" transform="translate(-8.86)"/><path class="cls-36" d="M941.84,249.37c-2.37,1.37-4.69,2.85-7.16,4l-2.24-4.27c2.42-1.13,4.65-2.57,7-3.9Z" transform="translate(-8.86)"/><polygon class="cls-37" points="945.34 241.27 938.55 245.97 935.92 241.93 942.46 237.41 945.34 241.27"/><polygon class="cls-38" points="953.16 228.15 956.56 231.57 953.61 234.52 950.41 237.16 947.31 233.47 950.37 230.95 953.16 228.15"/><polygon class="cls-39" points="892.8 267.27 885.07 269.82 883.64 265.22 891.25 262.71 892.8 267.27"/><polygon class="cls-40" points="906.53 262.25 898.91 265.15 897.26 260.62 904.74 257.77 906.53 262.25"/><path class="cls-41" d="M928.77,256.36c-2.42,1.27-5,2.24-7.45,3.37l-1.92-4.42c2.42-1.11,4.93-2,7.28-3.29Z" transform="translate(-8.86)"/><polygon class="cls-42" points="849.56 274 850.56 278.72 842.61 280.32 841.68 275.58 849.56 274"/><path class="cls-43" d="M873.61,275.43c-2.62.71-5.26,1.27-7.9,1.87l-1.07-4.7c2.61-.59,5.23-1.15,7.81-1.85Z" transform="translate(-8.86)"/><path class="cls-44" d="M887.63,271.66c-2.6.76-5.2,1.54-7.83,2.18l-1.24-4.66c2.6-.63,5.16-1.4,7.73-2.15Z" transform="translate(-8.86)"/><polygon class="cls-45" points="806.89 281.29 807.53 286.07 799.51 287.12 798.92 282.34 806.89 281.29"/><polygon class="cls-46" points="821.16 279.21 821.91 283.98 813.9 285.19 813.21 280.42 821.16 279.21"/><polygon class="cls-47" points="835.32 276.82 836.19 281.56 828.21 282.95 827.41 278.19 835.32 276.82"/><polygon class="cls-48" points="763.81 285.82 764.18 290.63 756.11 291.2 755.78 286.39 763.81 285.82"/><polygon class="cls-49" points="778.18 284.57 778.63 289.37 770.58 290.09 770.17 285.29 778.18 284.57"/><polygon class="cls-50" points="792.48 283.07 793.02 287.87 784.98 288.75 784.49 283.95 792.48 283.07"/><polygon class="cls-51" points="720.53 288.15 720.68 292.97 712.6 293.18 712.49 288.36 720.53 288.15"/><polygon class="cls-52" points="734.95 287.58 735.17 292.4 727.09 292.74 726.91 287.92 734.95 287.58"/><polygon class="cls-53" points="749.31 286.81 749.61 291.63 741.53 292.1 741.28 287.28 749.31 286.81"/><polygon class="cls-54" points="669.15 288.35 677.19 288.52 677.11 293.34 669.01 293.17 669.15 288.35"/><polygon class="cls-55" points="691.62 288.61 691.62 293.44 683.53 293.41 683.57 288.59 691.62 288.61"/><polygon class="cls-56" points="706 288.48 706.08 293.3 697.99 293.4 697.95 288.58 706 288.48"/><rect class="cls-57" x="341.31" y="135.71" width="455.63" height="829.7" rx="38.76" ry="38.76"/><path class="cls-58" d="M789.84,173.1V905a19.26,19.26,0,0,1-19.26,19.26H385.39A19.26,19.26,0,0,1,366.13,905V173.1a18.18,18.18,0,0,1,18.18-18.18H771.66A18.18,18.18,0,0,1,789.84,173.1Z" transform="translate(-8.86)"/><circle class="cls-19" cx="569.13" cy="145.05" r="6.85"/><g class="cls-59"><polygon class="cls-60" points="608.58 154.93 780.98 358.92 780.98 458.39 524.5 154.93 608.58 154.93"/><polygon class="cls-60" points="700.17 154.93 780.98 250.54 780.98 286.41 669.85 154.93 700.17 154.93"/><polygon class="cls-60" points="516.68 154.93 780.98 467.65 780.98 480.73 505.62 154.93 516.68 154.93"/></g><path class="cls-61" d="M1103.34,527.76h-6.65a4.43,4.43,0,0,1-4.18-3.07,29.4,29.4,0,0,0-1.65-4,4.37,4.37,0,0,1,.77-5.08l5-5a4,4,0,0,0,0-5.64l-2.88-2.88a4.4,4.4,0,0,0-6.23,0l-4.74,4.74a4.37,4.37,0,0,1-5.08.77,29.27,29.27,0,0,0-4-1.65,4.43,4.43,0,0,1-3.07-4.18v-6.65a4.4,4.4,0,0,0-4.4-4.4h-3.65a4.4,4.4,0,0,0-4.4,4.4v6.65a4.43,4.43,0,0,1-3.07,4.18,29.3,29.3,0,0,0-4,1.65,4.37,4.37,0,0,1-5.08-.77l-4.74-4.74a4.4,4.4,0,0,0-6.23,0l-2.88,2.88a4,4,0,0,0,0,5.64l5,5a4.37,4.37,0,0,1,.77,5.08,29.35,29.35,0,0,0-1.65,4,4.43,4.43,0,0,1-4.18,3.07h-6.65a4.4,4.4,0,0,0-4.4,4.4v3.65a4.4,4.4,0,0,0,4.4,4.4h6.65a4.43,4.43,0,0,1,4.18,3.07,29.35,29.35,0,0,0,1.65,4,4.37,4.37,0,0,1-.77,5.08l-5,5a4,4,0,0,0,0,5.64l2.88,2.88a4.4,4.4,0,0,0,6.23,0l4.73-4.73a4.37,4.37,0,0,1,5.08-.77,29.34,29.34,0,0,0,4,1.65,4.43,4.43,0,0,1,3.07,4.18v6.65a4.4,4.4,0,0,0,4.4,4.4h3.65a4.4,4.4,0,0,0,4.4-4.4v-6.65a4.43,4.43,0,0,1,3.07-4.18,29.34,29.34,0,0,0,4-1.65,4.37,4.37,0,0,1,5.08.77l4.74,4.74a4.4,4.4,0,0,0,6.23,0l2.88-2.88a4,4,0,0,0,0-5.64l-5-5a4.37,4.37,0,0,1-.77-5.08,29.4,29.4,0,0,0,1.65-4,4.43,4.43,0,0,1,4.18-3.07h6.65a4.4,4.4,0,0,0,4.4-4.4v-3.65A4.4,4.4,0,0,0,1103.34,527.76Zm-23.61,7.47a15.31,15.31,0,1,1-16.51-16.5A15.36,15.36,0,0,1,1079.73,535.23Z" transform="translate(-8.86)"/><polygon class="cls-62" points="571.92 0 520.01 32.85 571.92 67.83 623.83 32.85 571.92 0"/><rect class="cls-63" x="537.6" y="11.26" width="66.11" height="64.82"/><polygon class="cls-64" points="664.57 75.87 664.57 75.87 664.57 75.87 664.57 75.87"/><polygon class="cls-65" points="489.37 75.87 489.37 75.87 489.37 75.87 489.37 75.87"/><path class="cls-66" d="M580.78,74.2,524.14,36v65.24a8,8,0,0,0,8.05,7.89h97.18a8,8,0,0,0,8.05-7.89V36Z" transform="translate(-8.86)"/><path class="cls-67" d="M123.8,839.84c-2.47-3.13-5.34-6.07-6.89-9.75-2.16-5.14-1.44-11.06.2-16.38s4.15-10.37,5.59-15.76a41.94,41.94,0,0,0-9.37-38.33c-2-2.25-4.36-4.28-6-6.81-3.92-5.87-3.95-13.5-2.9-20.48s3-13.92,2.6-21a31.48,31.48,0,0,0-11.27-22.13c-6.44-5.3-15.09-7.16-23.45-7.28h-.53c-8.35,0-17,1.79-23.53,7A31.48,31.48,0,0,0,36.7,711c-.5,7,1.4,14,2.36,21s.86,14.62-3.13,20.44c-1.72,2.51-4.05,4.52-6.12,6.74A41.94,41.94,0,0,0,20,797.37c1.37,5.4,3.83,10.47,5.41,15.82s2.23,11.27,0,16.39c-1.59,3.66-4.49,6.56-7,9.67C9.14,850.74,5.14,868,13.19,880.38c3.21,5,8,8.67,13,11.87a77.38,77.38,0,0,0,25.18,10.89c3.94.86,8,1.63,12,.63,2.64-.67,4.65-.27,7.45-.28s4.82-.33,7.45.36c3.95,1,8,.32,12-.5a77.38,77.38,0,0,0,25.3-10.6c5-3.14,9.82-6.81,13.09-11.72C136.77,868.72,133,851.44,123.8,839.84Z" transform="translate(-8.86)"/><path class="cls-16" d="M75.13,879.06l38.47-51.21L75,869.24l-1.37-81.4,29-38.56-29.1,31.17L72.63,731l20.93-27.86-21,22.52L72,690.89l-.7,44.59-20.11-22,20,27.3L70.39,791,41.63,759.49l28.65,39L69,881l-39.28-43,39.12,53.31-.19,12.17h.07v13.3h6.93v-13.3h-.1Z" transform="translate(-8.86)"/><polygon class="cls-3" points="32.61 916.87 94 916.87 82.5 965.41 44.28 965.41 32.61 916.87"/><rect class="cls-68" x="32.61" y="913.19" width="61.39" height="3.68"/><ellipse class="cls-69" cx="570.73" cy="297.12" rx="53.61" ry="53.74"/><ellipse class="cls-57" cx="549.27" cy="278.95" rx="7.42" ry="7.44"/><ellipse class="cls-57" cx="592.16" cy="278.92" rx="7.42" ry="7.44"/><path class="cls-57" d="M547.47,307.8l1.16,2.76a35.23,35.23,0,0,0,11,15.55c3.78-3.23,11.61-5.46,20.68-5.46,9.42,0,17.51,2.38,21.11,5.8a34.38,34.38,0,0,0,11.08-16l.63-2.58Z" transform="translate(-8.86)"/><path class="cls-70" d="M559.63,326.11a33.48,33.48,0,0,0,21.14,7.41h.48a32.85,32.85,0,0,0,20.17-7.07c-3.6-3.42-11.69-5.81-21.11-5.8C571.24,320.66,563.41,322.89,559.63,326.11Z" transform="translate(-8.86)"/><path class="cls-71" d="M296.36,291.37H230.77a22,22,0,0,1-22-22V203.8a22,22,0,0,1,22-22h65.59a22,22,0,0,1,22,22v65.59A22,22,0,0,1,296.36,291.37ZM230.77,188.83a15,15,0,0,0-15,15v65.59a15,15,0,0,0,15,15h65.59a15,15,0,0,0,15-15V203.8a15,15,0,0,0-15-15Z" transform="translate(-8.86)"/><path class="cls-72" d="M295.46,206.39c-15.21-10.31-26.23,1.18-30.66,7.34-4.44-6.16-15.45-17.65-30.66-7.34-22.44,15.21,1.75,60.55,30.5,65.25v.06l.16,0,.16,0v-.06C293.71,266.95,317.9,221.6,295.46,206.39Z" transform="translate(-8.86)"/><path class="cls-73" d="M192.32,472.65H126.73a22,22,0,0,1-22-22V385.09a22,22,0,0,1,22-22h65.59a22,22,0,0,1,22,22v65.59A22,22,0,0,1,192.32,472.65ZM126.73,370.11a15,15,0,0,0-15,15v65.59a15,15,0,0,0,15,15h65.59a15,15,0,0,0,15-15V385.09a15,15,0,0,0-15-15Z" transform="translate(-8.86)"/><path class="cls-74" d="M180.39,410.23a85.57,85.57,0,0,1-11.38.08s-3.74-2.57-2.73-5.79c.6-1.91,4.45-7.32,5.81-10.79s1.34-7.92-2.71-10.28-6.82,3.07-7.36,5.63c-.59,2.8-7.66,12.66-10.41,15.67-3.53,3.86-9.76,5.08-9.76,5.08v29.78l.45,0a24.39,24.39,0,0,1,13.59,3.49,28.73,28.73,0,0,0,3.56,1.81c5.21,2.19,26.53,2.29,30.17-1.39s3.93-17,3.93-19.52,2.06-3,3.73-9S190.31,409.53,180.39,410.23Z" transform="translate(-8.86)"/><rect class="cls-75" x="116.34" y="409.87" width="11.26" height="29.35"/><path class="cls-76" d="M913.07,475.61H847.48a22,22,0,0,1-22-22V388a22,22,0,0,1,22-22h65.59a22,22,0,0,1,22,22v65.59A22,22,0,0,1,913.07,475.61ZM847.48,373.07a15,15,0,0,0-15,15v65.59a15,15,0,0,0,15,15h65.59a15,15,0,0,0,15-15V388a15,15,0,0,0-15-15Z" transform="translate(-8.86)"/><polygon class="cls-77" points="884.62 404.68 874.15 383.46 863.68 404.68 840.27 408.08 857.21 424.59 853.21 447.9 874.15 436.89 895.09 447.9 891.09 424.59 908.03 408.08 884.62 404.68"/><path class="cls-78" d="M291.12,460.45c-30,0-54.33,14.7-54.33,32.83,0,6.82,3.44,13.15,9.32,18.39-1.89,11,.48,32.19,5.78,26,5.72-6.67,20.65-11.34,25.27-12.66a88.32,88.32,0,0,0,14,1.1c30,0,54.33-14.7,54.33-32.83S321.13,460.45,291.12,460.45Zm-31.27,36.78a3.64,3.64,0,1,1,3.64-3.64A3.64,3.64,0,0,1,259.85,497.23Zm20.85,0a3.64,3.64,0,1,1,3.64-3.64A3.64,3.64,0,0,1,280.7,497.23Zm20.85,0a3.64,3.64,0,1,1,3.64-3.64A3.64,3.64,0,0,1,301.55,497.23Zm20.85,0a3.64,3.64,0,1,1,3.64-3.64A3.64,3.64,0,0,1,322.4,497.23Z" transform="translate(-8.86)"/><g class="cls-79"><rect class="cls-19" x="413.29" y="383.71" width="344.76" height="105.65" rx="14.24" ry="14.24"/><rect class="cls-80" x="413.26" y="383.68" width="344.76" height="105.65" rx="14.22" ry="14.22"/><rect class="cls-81" x="413.22" y="383.64" width="344.76" height="105.65" rx="14.2" ry="14.2"/><rect class="cls-82" x="413.19" y="383.6" width="344.76" height="105.65" rx="14.17" ry="14.17"/><rect class="cls-83" x="413.16" y="383.57" width="344.76" height="105.65" rx="14.15" ry="14.15"/><rect class="cls-84" x="413.12" y="383.53" width="344.76" height="105.65" rx="14.13" ry="14.13"/><rect class="cls-85" x="413.09" y="383.5" width="344.76" height="105.65" rx="14.1" ry="14.1"/><rect class="cls-86" x="413.06" y="383.46" width="344.76" height="105.65" rx="14.08" ry="14.08"/><rect class="cls-87" x="413.02" y="383.42" width="344.76" height="105.65" rx="14.06" ry="14.06"/><rect class="cls-88" x="412.99" y="383.39" width="344.76" height="105.65" rx="14.03" ry="14.03"/><rect class="cls-89" x="412.95" y="383.35" width="344.76" height="105.65" rx="14.01" ry="14.01"/><rect class="cls-90" x="412.92" y="383.31" width="344.76" height="105.65" rx="13.99" ry="13.99"/><rect class="cls-91" x="412.89" y="383.28" width="344.76" height="105.65" rx="13.97" ry="13.97"/><rect class="cls-92" x="412.85" y="383.24" width="344.76" height="105.65" rx="13.94" ry="13.94"/><rect class="cls-93" x="412.82" y="383.21" width="344.76" height="105.65" rx="13.92" ry="13.92"/><rect class="cls-94" x="412.78" y="383.17" width="344.76" height="105.65" rx="13.9" ry="13.9"/><rect class="cls-95" x="412.75" y="383.13" width="344.76" height="105.65" rx="13.87" ry="13.87"/><rect class="cls-96" x="412.72" y="383.1" width="344.76" height="105.65" rx="13.85" ry="13.85"/><rect class="cls-97" x="412.68" y="383.06" width="344.76" height="105.65" rx="13.83" ry="13.83"/><rect class="cls-98" x="412.65" y="383.02" width="344.76" height="105.65" rx="13.8" ry="13.8"/><rect class="cls-99" x="412.61" y="382.99" width="344.76" height="105.65" rx="13.78" ry="13.78"/><rect class="cls-100" x="412.58" y="382.95" width="344.76" height="105.65" rx="13.76" ry="13.76"/><rect class="cls-101" x="412.55" y="382.92" width="344.76" height="105.65" rx="13.74" ry="13.74"/><rect class="cls-102" x="412.51" y="382.88" width="344.76" height="105.65" rx="13.71" ry="13.71"/><rect class="cls-103" x="412.48" y="382.84" width="344.76" height="105.65" rx="13.69" ry="13.69"/><rect class="cls-104" x="412.44" y="382.81" width="344.76" height="105.65" rx="13.67" ry="13.67"/><rect class="cls-105" x="412.41" y="382.77" width="344.76" height="105.65" rx="13.64" ry="13.64"/><rect class="cls-106" x="412.38" y="382.73" width="344.76" height="105.65" rx="13.62" ry="13.62"/><rect class="cls-107" x="412.34" y="382.7" width="344.76" height="105.65" rx="13.6" ry="13.6"/><rect class="cls-108" x="412.31" y="382.66" width="344.76" height="105.65" rx="13.57" ry="13.57"/><rect class="cls-109" x="412.27" y="382.63" width="344.76" height="105.65" rx="13.55" ry="13.55"/><rect class="cls-110" x="412.24" y="382.59" width="344.76" height="105.65" rx="13.53" ry="13.53"/><rect class="cls-111" x="412.21" y="382.55" width="344.76" height="105.65" rx="13.51" ry="13.51"/><rect class="cls-112" x="412.17" y="382.52" width="344.76" height="105.65" rx="13.48" ry="13.48"/><rect class="cls-113" x="412.14" y="382.48" width="344.76" height="105.65" rx="13.46" ry="13.46"/><rect class="cls-114" x="412.11" y="382.44" width="344.76" height="105.65" rx="13.44" ry="13.44"/><rect class="cls-115" x="412.07" y="382.41" width="344.76" height="105.65" rx="13.41" ry="13.41"/><rect class="cls-116" x="412.04" y="382.37" width="344.76" height="105.65" rx="13.39" ry="13.39"/><rect class="cls-117" x="412" y="382.34" width="344.76" height="105.65" rx="13.37" ry="13.37"/><rect class="cls-118" x="411.97" y="382.3" width="344.76" height="105.65" rx="13.34" ry="13.34"/><rect class="cls-119" x="411.94" y="382.26" width="344.76" height="105.65" rx="13.32" ry="13.32"/><rect class="cls-120" x="411.9" y="382.23" width="344.76" height="105.65" rx="13.3" ry="13.3"/><rect class="cls-121" x="411.87" y="382.19" width="344.76" height="105.65" rx="13.28" ry="13.28"/><rect class="cls-122" x="411.83" y="382.15" width="344.76" height="105.65" rx="13.25" ry="13.25"/><rect class="cls-123" x="411.8" y="382.12" width="344.76" height="105.65" rx="13.23" ry="13.23"/><rect class="cls-124" x="411.77" y="382.08" width="344.76" height="105.65" rx="13.21" ry="13.21"/><rect class="cls-125" x="411.73" y="382.04" width="344.76" height="105.65" rx="13.18" ry="13.18"/><rect class="cls-126" x="411.7" y="382.01" width="344.76" height="105.65" rx="13.16" ry="13.16"/><rect class="cls-127" x="411.66" y="381.97" width="344.76" height="105.65" rx="13.14" ry="13.14"/><rect class="cls-128" x="411.63" y="381.94" width="344.76" height="105.65" rx="13.11" ry="13.11"/><rect class="cls-129" x="411.6" y="381.9" width="344.76" height="105.65" rx="13.09" ry="13.09"/><rect class="cls-130" x="411.56" y="381.86" width="344.76" height="105.65" rx="13.07" ry="13.07"/><rect class="cls-131" x="411.53" y="381.83" width="344.76" height="105.65" rx="13.05" ry="13.05"/><rect class="cls-132" x="411.49" y="381.79" width="344.76" height="105.65" rx="13.02" ry="13.02"/><rect class="cls-133" x="411.46" y="381.75" width="344.76" height="105.65" rx="13" ry="13"/><rect class="cls-134" x="411.43" y="381.72" width="344.76" height="105.65" rx="12.98" ry="12.98"/><rect class="cls-135" x="411.39" y="381.68" width="344.76" height="105.65" rx="12.95" ry="12.95"/><rect class="cls-136" x="411.36" y="381.65" width="344.76" height="105.65" rx="12.93" ry="12.93"/><rect class="cls-137" x="411.32" y="381.61" width="344.76" height="105.65" rx="12.91" ry="12.91"/><rect class="cls-138" x="411.29" y="381.57" width="344.76" height="105.65" rx="12.88" ry="12.88"/><rect class="cls-139" x="411.26" y="381.54" width="344.76" height="105.65" rx="12.86" ry="12.86"/><rect class="cls-140" x="411.22" y="381.5" width="344.76" height="105.65" rx="12.84" ry="12.84"/><rect class="cls-141" x="411.19" y="381.46" width="344.76" height="105.65" rx="12.82" ry="12.82"/><rect class="cls-142" x="411.16" y="381.43" width="344.76" height="105.65" rx="12.79" ry="12.79"/><rect class="cls-143" x="411.12" y="381.39" width="344.76" height="105.65" rx="12.77" ry="12.77"/><rect class="cls-144" x="411.09" y="381.36" width="344.76" height="105.65" rx="12.75" ry="12.75"/><rect class="cls-145" x="411.05" y="381.32" width="344.76" height="105.65" rx="12.72" ry="12.72"/><rect class="cls-146" x="411.02" y="381.28" width="344.76" height="105.65" rx="12.7" ry="12.7"/><rect class="cls-147" x="410.99" y="381.25" width="344.76" height="105.65" rx="12.68" ry="12.68"/><rect class="cls-148" x="410.95" y="381.21" width="344.76" height="105.65" rx="12.65" ry="12.65"/><rect class="cls-149" x="410.92" y="381.17" width="344.76" height="105.65" rx="12.63" ry="12.63"/><rect class="cls-150" x="410.88" y="381.14" width="344.76" height="105.65" rx="12.61" ry="12.61"/><rect class="cls-151" x="410.85" y="381.1" width="344.76" height="105.65" rx="12.59" ry="12.59"/><rect class="cls-152" x="410.82" y="381.07" width="344.76" height="105.65" rx="12.56" ry="12.56"/><rect class="cls-153" x="410.78" y="381.03" width="344.76" height="105.65" rx="12.54" ry="12.54"/><rect class="cls-154" x="410.75" y="380.99" width="344.76" height="105.65" rx="12.52" ry="12.52"/><rect class="cls-155" x="410.71" y="380.96" width="344.76" height="105.65" rx="12.49" ry="12.49"/><rect class="cls-156" x="410.68" y="380.92" width="344.76" height="105.65" rx="12.47" ry="12.47"/><rect class="cls-157" x="410.65" y="380.88" width="344.76" height="105.65" rx="12.45" ry="12.45"/><rect class="cls-158" x="410.61" y="380.85" width="344.76" height="105.65" rx="12.42" ry="12.42"/><rect class="cls-159" x="410.58" y="380.81" width="344.76" height="105.65" rx="12.4" ry="12.4"/><rect class="cls-160" x="410.54" y="380.78" width="344.76" height="105.65" rx="12.38" ry="12.38"/><rect class="cls-161" x="410.51" y="380.74" width="344.76" height="105.65" rx="12.35" ry="12.35"/><rect class="cls-162" x="410.48" y="380.7" width="344.76" height="105.65" rx="12.33" ry="12.33"/><rect class="cls-163" x="410.44" y="380.67" width="344.76" height="105.65" rx="12.31" ry="12.31"/><rect class="cls-164" x="410.41" y="380.63" width="344.76" height="105.65" rx="12.29" ry="12.29"/><rect class="cls-165" x="410.37" y="380.59" width="344.76" height="105.65" rx="12.26" ry="12.26"/><rect class="cls-166" x="410.34" y="380.56" width="344.76" height="105.65" rx="12.24" ry="12.24"/><rect class="cls-167" x="410.31" y="380.52" width="344.76" height="105.65" rx="12.22" ry="12.22"/><rect class="cls-168" x="410.27" y="380.49" width="344.76" height="105.65" rx="12.19" ry="12.19"/><rect class="cls-169" x="410.24" y="380.45" width="344.76" height="105.65" rx="12.17" ry="12.17"/><rect class="cls-170" x="410.21" y="380.41" width="344.76" height="105.65" rx="12.15" ry="12.15"/><rect class="cls-171" x="410.17" y="380.38" width="344.76" height="105.65" rx="12.12" ry="12.12"/><rect class="cls-172" x="410.14" y="380.34" width="344.76" height="105.65" rx="12.1" ry="12.1"/><rect class="cls-173" x="410.1" y="380.3" width="344.76" height="105.65" rx="12.08" ry="12.08"/><rect class="cls-174" x="410.07" y="380.27" width="344.76" height="105.65" rx="12.06" ry="12.06"/><rect class="cls-175" x="410.04" y="380.23" width="344.76" height="105.65" rx="12.03" ry="12.03"/><rect class="cls-176" x="410" y="380.2" width="344.76" height="105.65" rx="12.01" ry="12.01"/><rect class="cls-177" x="409.97" y="380.16" width="344.76" height="105.65" rx="11.99" ry="11.99"/><rect class="cls-178" x="409.93" y="380.12" width="344.76" height="105.65" rx="11.96" ry="11.96"/><rect class="cls-179" x="409.9" y="380.09" width="344.76" height="105.65" rx="11.94" ry="11.94"/><rect class="cls-180" x="409.87" y="380.05" width="344.76" height="105.65" rx="11.92" ry="11.92"/><rect class="cls-181" x="409.83" y="380.01" width="344.76" height="105.65" rx="11.89" ry="11.89"/><rect class="cls-182" x="409.8" y="379.98" width="344.76" height="105.65" rx="11.87" ry="11.87"/><rect class="cls-183" x="409.76" y="379.94" width="344.76" height="105.65" rx="11.85" ry="11.85"/><rect class="cls-184" x="409.73" y="379.91" width="344.76" height="105.65" rx="11.83" ry="11.83"/><rect class="cls-185" x="409.7" y="379.87" width="344.76" height="105.65" rx="11.8" ry="11.8"/><rect class="cls-186" x="409.66" y="379.83" width="344.76" height="105.65" rx="11.78" ry="11.78"/><rect class="cls-187" x="409.63" y="379.8" width="344.76" height="105.65" rx="11.76" ry="11.76"/><rect class="cls-188" x="409.59" y="379.76" width="344.76" height="105.65" rx="11.73" ry="11.73"/><rect class="cls-189" x="409.56" y="379.72" width="344.76" height="105.65" rx="11.71" ry="11.71"/><rect class="cls-190" x="409.53" y="379.69" width="344.76" height="105.65" rx="11.69" ry="11.69"/><rect class="cls-191" x="409.49" y="379.65" width="344.76" height="105.65" rx="11.66" ry="11.66"/><rect class="cls-192" x="409.46" y="379.61" width="344.76" height="105.65" rx="11.64" ry="11.64"/><rect class="cls-193" x="409.42" y="379.58" width="344.76" height="105.65" rx="11.62" ry="11.62"/><rect class="cls-194" x="409.39" y="379.54" width="344.76" height="105.65" rx="11.6" ry="11.6"/><rect class="cls-195" x="409.36" y="379.51" width="344.76" height="105.65" rx="11.57" ry="11.57"/><rect class="cls-196" x="409.32" y="379.47" width="344.76" height="105.65" rx="11.55" ry="11.55"/><rect class="cls-197" x="409.29" y="379.43" width="344.76" height="105.65" rx="11.53" ry="11.53"/><rect class="cls-198" x="409.26" y="379.4" width="344.76" height="105.65" rx="11.5" ry="11.5"/><rect class="cls-199" x="409.22" y="379.36" width="344.76" height="105.65" rx="11.48" ry="11.48"/><rect class="cls-200" x="409.19" y="379.32" width="344.76" height="105.65" rx="11.46" ry="11.46"/><rect class="cls-201" x="409.15" y="379.29" width="344.76" height="105.65" rx="11.43" ry="11.43"/><rect class="cls-202" x="409.12" y="379.25" width="344.76" height="105.65" rx="11.41" ry="11.41"/><rect class="cls-203" x="409.09" y="379.22" width="344.76" height="105.65" rx="11.39" ry="11.39"/><rect class="cls-204" x="409.05" y="379.18" width="344.76" height="105.65" rx="11.37" ry="11.37"/><rect class="cls-205" x="409.02" y="379.14" width="344.76" height="105.65" rx="11.34" ry="11.34"/><rect class="cls-206" x="408.98" y="379.11" width="344.76" height="105.65" rx="11.32" ry="11.32"/><rect class="cls-207" x="408.95" y="379.07" width="344.76" height="105.65" rx="11.3" ry="11.3"/><rect class="cls-208" x="408.92" y="379.03" width="344.76" height="105.65" rx="11.27" ry="11.27"/><rect class="cls-209" x="408.88" y="379" width="344.76" height="105.65" rx="11.25" ry="11.25"/><rect class="cls-210" x="408.85" y="378.96" width="344.76" height="105.65" rx="11.23" ry="11.23"/><rect class="cls-211" x="408.81" y="378.93" width="344.76" height="105.65" rx="11.2" ry="11.2"/><rect class="cls-212" x="408.78" y="378.89" width="344.76" height="105.65" rx="11.18" ry="11.18"/><rect class="cls-213" x="408.75" y="378.85" width="344.76" height="105.65" rx="11.16" ry="11.16"/><rect class="cls-214" x="408.71" y="378.82" width="344.76" height="105.65" rx="11.14" ry="11.14"/><rect class="cls-215" x="408.68" y="378.78" width="344.76" height="105.65" rx="11.11" ry="11.11"/><rect class="cls-216" x="408.64" y="378.74" width="344.76" height="105.65" rx="11.09" ry="11.09"/><rect class="cls-217" x="408.61" y="378.71" width="344.76" height="105.65" rx="11.07" ry="11.07"/><rect class="cls-218" x="408.58" y="378.67" width="344.76" height="105.65" rx="11.04" ry="11.04"/><rect class="cls-219" x="408.54" y="378.64" width="344.76" height="105.65" rx="11.02" ry="11.02"/><rect class="cls-220" x="408.51" y="378.6" width="344.76" height="105.65" rx="11" ry="11"/><rect class="cls-221" x="408.47" y="378.56" width="344.76" height="105.65" rx="10.97" ry="10.97"/><rect class="cls-222" x="408.44" y="378.53" width="344.76" height="105.65" rx="10.95" ry="10.95"/><rect class="cls-223" x="408.41" y="378.49" width="344.76" height="105.65" rx="10.93" ry="10.93"/><rect class="cls-224" x="408.37" y="378.45" width="344.76" height="105.65" rx="10.91" ry="10.91"/><rect class="cls-225" x="408.34" y="378.42" width="344.76" height="105.65" rx="10.88" ry="10.88"/><rect class="cls-226" x="408.31" y="378.38" width="344.76" height="105.65" rx="10.86" ry="10.86"/><rect class="cls-227" x="408.27" y="378.35" width="344.76" height="105.65" rx="10.84" ry="10.84"/><rect class="cls-228" x="408.24" y="378.31" width="344.76" height="105.65" rx="10.81" ry="10.81"/><rect class="cls-229" x="408.2" y="378.27" width="344.76" height="105.65" rx="10.79" ry="10.79"/><rect class="cls-230" x="408.17" y="378.24" width="344.76" height="105.65" rx="10.77" ry="10.77"/><rect class="cls-231" x="408.14" y="378.2" width="344.76" height="105.65" rx="10.74" ry="10.74"/><rect class="cls-232" x="408.1" y="378.16" width="344.76" height="105.65" rx="10.72" ry="10.72"/><rect class="cls-233" x="408.07" y="378.13" width="344.76" height="105.65" rx="10.7" ry="10.7"/><rect class="cls-234" x="408.03" y="378.09" width="344.76" height="105.65" rx="10.68" ry="10.68"/><rect class="cls-235" x="408" y="378.06" width="344.76" height="105.65" rx="10.65" ry="10.65"/><rect class="cls-236" x="407.97" y="378.02" width="344.76" height="105.65" rx="10.63" ry="10.63"/><rect class="cls-237" x="407.93" y="377.98" width="344.76" height="105.65" rx="10.61" ry="10.61"/><rect class="cls-238" x="407.9" y="377.95" width="344.76" height="105.65" rx="10.58" ry="10.58"/><rect class="cls-239" x="407.86" y="377.91" width="344.76" height="105.65" rx="10.56" ry="10.56"/><rect class="cls-240" x="407.83" y="377.87" width="344.76" height="105.65" rx="10.54" ry="10.54"/><rect class="cls-241" x="407.8" y="377.84" width="344.76" height="105.65" rx="10.51" ry="10.51"/><rect class="cls-242" x="407.76" y="377.8" width="344.76" height="105.65" rx="10.49" ry="10.49"/><rect class="cls-243" x="407.73" y="377.77" width="344.76" height="105.65" rx="10.47" ry="10.47"/><rect class="cls-244" x="407.69" y="377.73" width="344.76" height="105.65" rx="10.45" ry="10.45"/><rect class="cls-245" x="407.66" y="377.69" width="344.76" height="105.65" rx="10.42" ry="10.42"/><rect class="cls-246" x="407.63" y="377.66" width="344.76" height="105.65" rx="10.4" ry="10.4"/><rect class="cls-247" x="407.59" y="377.62" width="344.76" height="105.65" rx="10.38" ry="10.38"/><rect class="cls-248" x="407.56" y="377.58" width="344.76" height="105.65" rx="10.35" ry="10.35"/><rect class="cls-249" x="407.52" y="377.55" width="344.76" height="105.65" rx="10.33" ry="10.33"/><rect class="cls-250" x="407.49" y="377.51" width="344.76" height="105.65" rx="10.31" ry="10.31"/><rect class="cls-251" x="407.46" y="377.48" width="344.76" height="105.65" rx="10.28" ry="10.28"/><rect class="cls-252" x="407.42" y="377.44" width="344.76" height="105.65" rx="10.26" ry="10.26"/><rect class="cls-253" x="407.39" y="377.4" width="344.76" height="105.65" rx="10.24" ry="10.24"/><rect class="cls-254" x="407.36" y="377.37" width="344.76" height="105.65" rx="10.22" ry="10.22"/><rect class="cls-255" x="407.32" y="377.33" width="344.76" height="105.65" rx="10.19" ry="10.19"/><rect class="cls-256" x="407.29" y="377.29" width="344.76" height="105.65" rx="10.17" ry="10.17"/><rect class="cls-257" x="407.25" y="377.26" width="344.76" height="105.65" rx="10.15" ry="10.15"/><rect class="cls-258" x="407.22" y="377.22" width="344.76" height="105.65" rx="10.12" ry="10.12"/><rect class="cls-259" x="407.19" y="377.18" width="344.76" height="105.65" rx="10.1" ry="10.1"/><rect class="cls-260" x="407.15" y="377.15" width="344.76" height="105.65" rx="10.08" ry="10.08"/><rect class="cls-261" x="407.12" y="377.11" width="344.76" height="105.65" rx="10.05" ry="10.05"/><rect class="cls-262" x="407.08" y="377.08" width="344.76" height="105.65" rx="10.03" ry="10.03"/><rect class="cls-263" x="407.05" y="377.04" width="344.76" height="105.65" rx="10.01" ry="10.01"/><rect class="cls-264" x="407.02" y="377" width="344.76" height="105.65" rx="9.99" ry="9.99"/><rect class="cls-265" x="406.98" y="376.97" width="344.76" height="105.65" rx="9.96" ry="9.96"/><rect class="cls-266" x="406.95" y="376.93" width="344.76" height="105.65" rx="9.94" ry="9.94"/><rect class="cls-267" x="406.91" y="376.89" width="344.76" height="105.65" rx="9.92" ry="9.92"/><rect class="cls-268" x="406.88" y="376.86" width="344.76" height="105.65" rx="9.89" ry="9.89"/><rect class="cls-269" x="406.85" y="376.82" width="344.76" height="105.65" rx="9.87" ry="9.87"/><rect class="cls-270" x="406.81" y="376.79" width="344.76" height="105.65" rx="9.85" ry="9.85"/><rect class="cls-271" x="406.78" y="376.75" width="344.76" height="105.65" rx="9.82" ry="9.82"/><rect class="cls-272" x="406.74" y="376.71" width="344.76" height="105.65" rx="9.8" ry="9.8"/><rect class="cls-273" x="406.71" y="376.68" width="344.76" height="105.65" rx="9.78" ry="9.78"/><path class="cls-274" d="M416.43,376.64H741.68a9.75,9.75,0,0,1,9.75,9.75v86.14a9.75,9.75,0,0,1-9.75,9.75H416.43a9.76,9.76,0,0,1-9.76-9.76V386.4A9.75,9.75,0,0,1,416.43,376.64Z"/><rect class="cls-275" x="406.64" y="376.6" width="344.76" height="105.65" rx="9.73" ry="9.73"/><rect class="cls-276" x="406.61" y="376.57" width="344.76" height="105.65" rx="9.71" ry="9.71"/><rect class="cls-277" x="406.57" y="376.53" width="344.76" height="105.65" rx="9.69" ry="9.69"/><rect class="cls-278" x="406.54" y="376.5" width="344.76" height="105.65" rx="9.66" ry="9.66"/><rect class="cls-279" x="406.51" y="376.46" width="344.76" height="105.65" rx="9.64" ry="9.64"/><rect class="cls-280" x="406.47" y="376.42" width="344.76" height="105.65" rx="9.62" ry="9.62"/><rect class="cls-281" x="406.44" y="376.39" width="344.76" height="105.65" rx="9.59" ry="9.59"/><rect class="cls-282" x="406.41" y="376.35" width="344.76" height="105.65" rx="9.57" ry="9.57"/><rect class="cls-283" x="406.37" y="376.31" width="344.76" height="105.65" rx="9.55" ry="9.55"/><rect class="cls-284" x="406.34" y="376.28" width="344.76" height="105.65" rx="9.52" ry="9.52"/><rect class="cls-285" x="406.3" y="376.24" width="344.76" height="105.65" rx="9.5" ry="9.5"/><rect class="cls-286" x="406.27" y="376.21" width="344.76" height="105.65" rx="9.48" ry="9.48"/><rect class="cls-287" x="406.24" y="376.17" width="344.76" height="105.65" rx="9.46" ry="9.46"/><rect class="cls-288" x="406.2" y="376.13" width="344.76" height="105.65" rx="9.43" ry="9.43"/><rect class="cls-289" x="406.17" y="376.1" width="344.76" height="105.65" rx="9.41" ry="9.41"/><rect class="cls-57" x="406.13" y="376.06" width="344.76" height="105.65" rx="9.39" ry="9.39"/></g><rect class="cls-290" x="406.12" y="376.09" width="344.76" height="105.65" rx="9.39" ry="9.39"/><path class="cls-19" d="M528,431.18v1.08a2.83,2.83,0,0,0,2.52,3.07h175a2.83,2.83,0,0,0,2.52-3.07v-1.08a2.83,2.83,0,0,0-2.52-3.07h-175A2.83,2.83,0,0,0,528,431.18Z" transform="translate(-8.86)"/><path class="cls-19" d="M530.48,451.84h175a2.83,2.83,0,0,0,2.52-3.07v-1.08a2.83,2.83,0,0,0-2.52-3.07h-175a2.83,2.83,0,0,0-2.52,3.07v1.08A2.83,2.83,0,0,0,530.48,451.84Z" transform="translate(-8.86)"/><path class="cls-19" d="M530.48,468.34H634.57a2.83,2.83,0,0,0,2.52-3.07v-1.08a2.83,2.83,0,0,0-2.52-3.07H530.48a2.83,2.83,0,0,0-2.52,3.07v1.08A2.83,2.83,0,0,0,530.48,468.34Z" transform="translate(-8.86)"/><circle class="cls-19" cx="459.58" cy="435.7" r="36.42"/><g class="cls-291"><path class="cls-292" d="M486.17,433.33a.8.8,0,0,0,0-.21c0-.36,0-.73,0-1.1q0-1.3,0-2.6v-1.53c-.32-7-17.59-7.6-17.59-7.6s-17.27.62-17.59,7.6v1.53q0,1.3,0,2.6c0,.37,0,.73,0,1.1a.8.8,0,0,0,0,.21c0,.32,0,.64,0,1l2.55,10a35.84,35.84,0,0,0,3.57,6.26,19.32,19.32,0,0,0,5.89,5.57,11,11,0,0,0,11.33,0,19.32,19.32,0,0,0,5.89-5.57,35.84,35.84,0,0,0,3.57-6.26l2.55-10C486.21,434,486.19,433.65,486.17,433.33Z" transform="translate(-8.86)"/><path class="cls-3" d="M453.2,454.11l7.47.49a20.86,20.86,0,0,1-3.43-4.7,29.17,29.17,0,0,1-4.47-13.8c-.49-11,3.46-13.45,2.78-11.54s1.42,3.52,6.11,3.52,9.69-5.49,14.31-5.68,7.36,3.75,8.16,10.85a25.64,25.64,0,0,1-7.89,21.34l7.59-.47a2.85,2.85,0,0,0,2.49-3.82c-1.2-3.37-.39-7.77,1-16.44,2.43-14.94-.52-30.35-18.81-29.24s-19.76,13.5-20,17.46c-.41,6.34,3.14,15.36,3.76,21.1a14.78,14.78,0,0,1-1.52,7A2.84,2.84,0,0,0,453.2,454.11Z" transform="translate(-8.86)"/><rect class="cls-292" x="451.82" y="454.6" width="15.57" height="18.81"/><path class="cls-293" d="M497.41,488c.08-11.31.17-19.43.17-19.43s-15.12-6.76-21-8.16v.39c.37.24.67.52.62.8-.24,1.53-8.45,3.93-8.74,4-.29-.08-8.5-2.49-8.74-4,0-.28.25-.56.62-.8v-.39c-5.87,1.4-21,8.16-21,8.16L439.29,488Z" transform="translate(-8.86)"/></g><polygon class="cls-294" points="543.39 397.86 538.59 388.14 533.8 397.86 523.08 399.42 530.83 406.98 529 417.66 538.59 412.62 548.18 417.66 546.35 406.98 554.11 399.42 543.39 397.86"/><polygon class="cls-295" points="579.43 397.86 574.64 388.14 569.84 397.86 559.12 399.42 566.88 406.98 565.05 417.66 574.64 412.62 584.23 417.66 582.4 406.98 590.16 399.42 579.43 397.86"/><polygon class="cls-296" points="615.48 397.86 610.69 388.14 605.89 397.86 595.17 399.42 602.93 406.98 601.1 417.66 610.69 412.62 620.28 417.66 618.44 406.98 626.2 399.42 615.48 397.86"/><polygon class="cls-297" points="651.53 397.86 646.73 388.14 641.94 397.86 631.22 399.42 638.97 406.98 637.14 417.66 646.73 412.62 656.32 417.66 654.49 406.98 662.25 399.42 651.53 397.86"/><polygon class="cls-298" points="698.3 399.42 687.57 397.86 682.78 388.14 677.98 397.86 667.26 399.42 675.02 406.98 673.19 417.66 682.78 412.62 692.37 417.66 690.54 406.98 698.3 399.42"/><g class="cls-79"><rect class="cls-19" x="413.29" y="517.38" width="344.76" height="105.65" rx="14.24" ry="14.24"/><rect class="cls-80" x="413.26" y="517.34" width="344.76" height="105.65" rx="14.22" ry="14.22"/><rect class="cls-81" x="413.23" y="517.3" width="344.76" height="105.65" rx="14.2" ry="14.2"/><rect class="cls-82" x="413.19" y="517.27" width="344.76" height="105.65" rx="14.17" ry="14.17"/><rect class="cls-83" x="413.16" y="517.23" width="344.76" height="105.65" rx="14.15" ry="14.15"/><rect class="cls-84" x="413.12" y="517.19" width="344.76" height="105.65" rx="14.13" ry="14.13"/><rect class="cls-85" x="413.09" y="517.16" width="344.76" height="105.65" rx="14.1" ry="14.1"/><rect class="cls-86" x="413.06" y="517.12" width="344.76" height="105.65" rx="14.08" ry="14.08"/><rect class="cls-87" x="413.02" y="517.09" width="344.76" height="105.65" rx="14.06" ry="14.06"/><rect class="cls-88" x="412.99" y="517.05" width="344.76" height="105.65" rx="14.03" ry="14.03"/><rect class="cls-89" x="412.95" y="517.01" width="344.76" height="105.65" rx="14.01" ry="14.01"/><rect class="cls-90" x="412.92" y="516.98" width="344.76" height="105.65" rx="13.99" ry="13.99"/><rect class="cls-91" x="412.89" y="516.94" width="344.76" height="105.65" rx="13.97" ry="13.97"/><rect class="cls-92" x="412.85" y="516.9" width="344.76" height="105.65" rx="13.94" ry="13.94"/><rect class="cls-93" x="412.82" y="516.87" width="344.76" height="105.65" rx="13.92" ry="13.92"/><rect class="cls-94" x="412.78" y="516.83" width="344.76" height="105.65" rx="13.9" ry="13.9"/><rect class="cls-95" x="412.75" y="516.8" width="344.76" height="105.65" rx="13.87" ry="13.87"/><rect class="cls-96" x="412.72" y="516.76" width="344.76" height="105.65" rx="13.85" ry="13.85"/><rect class="cls-97" x="412.68" y="516.72" width="344.76" height="105.65" rx="13.83" ry="13.83"/><rect class="cls-98" x="412.65" y="516.69" width="344.76" height="105.65" rx="13.8" ry="13.8"/><rect class="cls-99" x="412.62" y="516.65" width="344.76" height="105.65" rx="13.78" ry="13.78"/><rect class="cls-100" x="412.58" y="516.61" width="344.76" height="105.65" rx="13.76" ry="13.76"/><rect class="cls-101" x="412.55" y="516.58" width="344.76" height="105.65" rx="13.74" ry="13.74"/><rect class="cls-102" x="412.51" y="516.54" width="344.76" height="105.65" rx="13.71" ry="13.71"/><rect class="cls-103" x="412.48" y="516.51" width="344.76" height="105.65" rx="13.69" ry="13.69"/><rect class="cls-104" x="412.45" y="516.47" width="344.76" height="105.65" rx="13.67" ry="13.67"/><rect class="cls-105" x="412.41" y="516.43" width="344.76" height="105.65" rx="13.64" ry="13.64"/><rect class="cls-106" x="412.38" y="516.4" width="344.76" height="105.65" rx="13.62" ry="13.62"/><rect class="cls-107" x="412.34" y="516.36" width="344.76" height="105.65" rx="13.6" ry="13.6"/><rect class="cls-108" x="412.31" y="516.32" width="344.76" height="105.65" rx="13.57" ry="13.57"/><rect class="cls-109" x="412.28" y="516.29" width="344.76" height="105.65" rx="13.55" ry="13.55"/><rect class="cls-110" x="412.24" y="516.25" width="344.76" height="105.65" rx="13.53" ry="13.53"/><rect class="cls-111" x="412.21" y="516.21" width="344.76" height="105.65" rx="13.51" ry="13.51"/><rect class="cls-112" x="412.17" y="516.18" width="344.76" height="105.65" rx="13.48" ry="13.48"/><rect class="cls-113" x="412.14" y="516.14" width="344.76" height="105.65" rx="13.46" ry="13.46"/><rect class="cls-114" x="412.11" y="516.11" width="344.76" height="105.65" rx="13.44" ry="13.44"/><rect class="cls-115" x="412.07" y="516.07" width="344.76" height="105.65" rx="13.41" ry="13.41"/><rect class="cls-116" x="412.04" y="516.03" width="344.76" height="105.65" rx="13.39" ry="13.39"/><rect class="cls-117" x="412" y="516" width="344.76" height="105.65" rx="13.37" ry="13.37"/><rect class="cls-118" x="411.97" y="515.96" width="344.76" height="105.65" rx="13.34" ry="13.34"/><rect class="cls-119" x="411.94" y="515.92" width="344.76" height="105.65" rx="13.32" ry="13.32"/><rect class="cls-120" x="411.9" y="515.89" width="344.76" height="105.65" rx="13.3" ry="13.3"/><rect class="cls-121" x="411.87" y="515.85" width="344.76" height="105.65" rx="13.28" ry="13.28"/><rect class="cls-122" x="411.83" y="515.82" width="344.76" height="105.65" rx="13.25" ry="13.25"/><rect class="cls-123" x="411.8" y="515.78" width="344.76" height="105.65" rx="13.23" ry="13.23"/><rect class="cls-124" x="411.77" y="515.74" width="344.76" height="105.65" rx="13.21" ry="13.21"/><rect class="cls-125" x="411.73" y="515.71" width="344.76" height="105.65" rx="13.18" ry="13.18"/><rect class="cls-126" x="411.7" y="515.67" width="344.76" height="105.65" rx="13.16" ry="13.16"/><rect class="cls-127" x="411.67" y="515.63" width="344.76" height="105.65" rx="13.14" ry="13.14"/><rect class="cls-128" x="411.63" y="515.6" width="344.76" height="105.65" rx="13.11" ry="13.11"/><rect class="cls-129" x="411.6" y="515.56" width="344.76" height="105.65" rx="13.09" ry="13.09"/><rect class="cls-130" x="411.56" y="515.53" width="344.76" height="105.65" rx="13.07" ry="13.07"/><rect class="cls-131" x="411.53" y="515.49" width="344.76" height="105.65" rx="13.05" ry="13.05"/><rect class="cls-132" x="411.5" y="515.45" width="344.76" height="105.65" rx="13.02" ry="13.02"/><rect class="cls-133" x="411.46" y="515.42" width="344.76" height="105.65" rx="13" ry="13"/><rect class="cls-134" x="411.43" y="515.38" width="344.76" height="105.65" rx="12.98" ry="12.98"/><rect class="cls-135" x="411.39" y="515.34" width="344.76" height="105.65" rx="12.95" ry="12.95"/><rect class="cls-136" x="411.36" y="515.31" width="344.76" height="105.65" rx="12.93" ry="12.93"/><rect class="cls-137" x="411.33" y="515.27" width="344.76" height="105.65" rx="12.91" ry="12.91"/><rect class="cls-138" x="411.29" y="515.24" width="344.76" height="105.65" rx="12.88" ry="12.88"/><rect class="cls-139" x="411.26" y="515.2" width="344.76" height="105.65" rx="12.86" ry="12.86"/><rect class="cls-140" x="411.22" y="515.16" width="344.76" height="105.65" rx="12.84" ry="12.84"/><rect class="cls-141" x="411.19" y="515.13" width="344.76" height="105.65" rx="12.82" ry="12.82"/><rect class="cls-142" x="411.16" y="515.09" width="344.76" height="105.65" rx="12.79" ry="12.79"/><rect class="cls-143" x="411.12" y="515.05" width="344.76" height="105.65" rx="12.77" ry="12.77"/><rect class="cls-144" x="411.09" y="515.02" width="344.76" height="105.65" rx="12.75" ry="12.75"/><rect class="cls-145" x="411.05" y="514.98" width="344.76" height="105.65" rx="12.72" ry="12.72"/><rect class="cls-146" x="411.02" y="514.95" width="344.76" height="105.65" rx="12.7" ry="12.7"/><rect class="cls-147" x="410.99" y="514.91" width="344.76" height="105.65" rx="12.68" ry="12.68"/><rect class="cls-148" x="410.95" y="514.87" width="344.76" height="105.65" rx="12.65" ry="12.65"/><rect class="cls-149" x="410.92" y="514.84" width="344.76" height="105.65" rx="12.63" ry="12.63"/><rect class="cls-150" x="410.88" y="514.8" width="344.76" height="105.65" rx="12.61" ry="12.61"/><path class="cls-151" d="M423.44,514.76H743a12.58,12.58,0,0,1,12.58,12.58v80.48A12.58,12.58,0,0,1,743,620.42H423.44a12.58,12.58,0,0,1-12.58-12.58V527.35A12.59,12.59,0,0,1,423.44,514.76Z"/><rect class="cls-152" x="410.82" y="514.73" width="344.76" height="105.65" rx="12.56" ry="12.56"/><rect class="cls-153" x="410.78" y="514.69" width="344.76" height="105.65" rx="12.54" ry="12.54"/><rect class="cls-154" x="410.75" y="514.66" width="344.76" height="105.65" rx="12.52" ry="12.52"/><rect class="cls-155" x="410.72" y="514.62" width="344.76" height="105.65" rx="12.49" ry="12.49"/><rect class="cls-156" x="410.68" y="514.58" width="344.76" height="105.65" rx="12.47" ry="12.47"/><rect class="cls-157" x="410.65" y="514.55" width="344.76" height="105.65" rx="12.45" ry="12.45"/><rect class="cls-158" x="410.61" y="514.51" width="344.76" height="105.65" rx="12.42" ry="12.42"/><rect class="cls-159" x="410.58" y="514.47" width="344.76" height="105.65" rx="12.4" ry="12.4"/><rect class="cls-160" x="410.55" y="514.44" width="344.76" height="105.65" rx="12.38" ry="12.38"/><rect class="cls-161" x="410.51" y="514.4" width="344.76" height="105.65" rx="12.35" ry="12.35"/><rect class="cls-162" x="410.48" y="514.37" width="344.76" height="105.65" rx="12.33" ry="12.33"/><rect class="cls-163" x="410.44" y="514.33" width="344.76" height="105.65" rx="12.31" ry="12.31"/><rect class="cls-164" x="410.41" y="514.29" width="344.76" height="105.65" rx="12.29" ry="12.29"/><rect class="cls-165" x="410.38" y="514.26" width="344.76" height="105.65" rx="12.26" ry="12.26"/><rect class="cls-166" x="410.34" y="514.22" width="344.76" height="105.65" rx="12.24" ry="12.24"/><rect class="cls-167" x="410.31" y="514.18" width="344.76" height="105.65" rx="12.22" ry="12.22"/><rect class="cls-168" x="410.27" y="514.15" width="344.76" height="105.65" rx="12.19" ry="12.19"/><rect class="cls-169" x="410.24" y="514.11" width="344.76" height="105.65" rx="12.17" ry="12.17"/><rect class="cls-170" x="410.21" y="514.08" width="344.76" height="105.65" rx="12.15" ry="12.15"/><rect class="cls-171" x="410.17" y="514.04" width="344.76" height="105.65" rx="12.12" ry="12.12"/><rect class="cls-172" x="410.14" y="514" width="344.76" height="105.65" rx="12.1" ry="12.1"/><rect class="cls-173" x="410.1" y="513.97" width="344.76" height="105.65" rx="12.08" ry="12.08"/><rect class="cls-174" x="410.07" y="513.93" width="344.76" height="105.65" rx="12.06" ry="12.06"/><rect class="cls-175" x="410.04" y="513.89" width="344.76" height="105.65" rx="12.03" ry="12.03"/><rect class="cls-176" x="410" y="513.86" width="344.76" height="105.65" rx="12.01" ry="12.01"/><rect class="cls-177" x="409.97" y="513.82" width="344.76" height="105.65" rx="11.99" ry="11.99"/><rect class="cls-178" x="409.93" y="513.78" width="344.76" height="105.65" rx="11.96" ry="11.96"/><rect class="cls-179" x="409.9" y="513.75" width="344.76" height="105.65" rx="11.94" ry="11.94"/><rect class="cls-180" x="409.87" y="513.71" width="344.76" height="105.65" rx="11.92" ry="11.92"/><rect class="cls-181" x="409.83" y="513.68" width="344.76" height="105.65" rx="11.89" ry="11.89"/><rect class="cls-182" x="409.8" y="513.64" width="344.76" height="105.65" rx="11.87" ry="11.87"/><rect class="cls-183" x="409.77" y="513.6" width="344.76" height="105.65" rx="11.85" ry="11.85"/><rect class="cls-184" x="409.73" y="513.57" width="344.76" height="105.65" rx="11.83" ry="11.83"/><rect class="cls-185" x="409.7" y="513.53" width="344.76" height="105.65" rx="11.8" ry="11.8"/><rect class="cls-186" x="409.66" y="513.49" width="344.76" height="105.65" rx="11.78" ry="11.78"/><rect class="cls-187" x="409.63" y="513.46" width="344.76" height="105.65" rx="11.76" ry="11.76"/><rect class="cls-188" x="409.6" y="513.42" width="344.76" height="105.65" rx="11.73" ry="11.73"/><rect class="cls-189" x="409.56" y="513.39" width="344.76" height="105.65" rx="11.71" ry="11.71"/><rect class="cls-190" x="409.53" y="513.35" width="344.76" height="105.65" rx="11.69" ry="11.69"/><rect class="cls-191" x="409.49" y="513.31" width="344.76" height="105.65" rx="11.66" ry="11.66"/><rect class="cls-192" x="409.46" y="513.28" width="344.76" height="105.65" rx="11.64" ry="11.64"/><rect class="cls-193" x="409.43" y="513.24" width="344.76" height="105.65" rx="11.62" ry="11.62"/><rect class="cls-194" x="409.39" y="513.2" width="344.76" height="105.65" rx="11.6" ry="11.6"/><rect class="cls-195" x="409.36" y="513.17" width="344.76" height="105.65" rx="11.57" ry="11.57"/><rect class="cls-196" x="409.32" y="513.13" width="344.76" height="105.65" rx="11.55" ry="11.55"/><rect class="cls-197" x="409.29" y="513.1" width="344.76" height="105.65" rx="11.53" ry="11.53"/><rect class="cls-198" x="409.26" y="513.06" width="344.76" height="105.65" rx="11.5" ry="11.5"/><rect class="cls-199" x="409.22" y="513.02" width="344.76" height="105.65" rx="11.48" ry="11.48"/><rect class="cls-200" x="409.19" y="512.99" width="344.76" height="105.65" rx="11.46" ry="11.46"/><rect class="cls-201" x="409.15" y="512.95" width="344.76" height="105.65" rx="11.43" ry="11.43"/><rect class="cls-202" x="409.12" y="512.91" width="344.76" height="105.65" rx="11.41" ry="11.41"/><rect class="cls-203" x="409.09" y="512.88" width="344.76" height="105.65" rx="11.39" ry="11.39"/><rect class="cls-204" x="409.05" y="512.84" width="344.76" height="105.65" rx="11.37" ry="11.37"/><rect class="cls-205" x="409.02" y="512.81" width="344.76" height="105.65" rx="11.34" ry="11.34"/><rect class="cls-206" x="408.98" y="512.77" width="344.76" height="105.65" rx="11.32" ry="11.32"/><rect class="cls-207" x="408.95" y="512.73" width="344.76" height="105.65" rx="11.3" ry="11.3"/><rect class="cls-208" x="408.92" y="512.7" width="344.76" height="105.65" rx="11.27" ry="11.27"/><rect class="cls-209" x="408.88" y="512.66" width="344.76" height="105.65" rx="11.25" ry="11.25"/><rect class="cls-210" x="408.85" y="512.62" width="344.76" height="105.65" rx="11.23" ry="11.23"/><rect class="cls-211" x="408.82" y="512.59" width="344.76" height="105.65" rx="11.2" ry="11.2"/><rect class="cls-212" x="408.78" y="512.55" width="344.76" height="105.65" rx="11.18" ry="11.18"/><rect class="cls-213" x="408.75" y="512.52" width="344.76" height="105.65" rx="11.16" ry="11.16"/><rect class="cls-214" x="408.71" y="512.48" width="344.76" height="105.65" rx="11.14" ry="11.14"/><rect class="cls-215" x="408.68" y="512.44" width="344.76" height="105.65" rx="11.11" ry="11.11"/><rect class="cls-216" x="408.65" y="512.41" width="344.76" height="105.65" rx="11.09" ry="11.09"/><rect class="cls-217" x="408.61" y="512.37" width="344.76" height="105.65" rx="11.07" ry="11.07"/><rect class="cls-218" x="408.58" y="512.33" width="344.76" height="105.65" rx="11.04" ry="11.04"/><rect class="cls-219" x="408.54" y="512.3" width="344.76" height="105.65" rx="11.02" ry="11.02"/><rect class="cls-220" x="408.51" y="512.26" width="344.76" height="105.65" rx="11" ry="11"/><rect class="cls-221" x="408.48" y="512.23" width="344.76" height="105.65" rx="10.97" ry="10.97"/><rect class="cls-222" x="408.44" y="512.19" width="344.76" height="105.65" rx="10.95" ry="10.95"/><rect class="cls-223" x="408.41" y="512.15" width="344.76" height="105.65" rx="10.93" ry="10.93"/><rect class="cls-224" x="408.37" y="512.12" width="344.76" height="105.65" rx="10.91" ry="10.91"/><rect class="cls-225" x="408.34" y="512.08" width="344.76" height="105.65" rx="10.88" ry="10.88"/><rect class="cls-226" x="408.31" y="512.04" width="344.76" height="105.65" rx="10.86" ry="10.86"/><rect class="cls-227" x="408.27" y="512.01" width="344.76" height="105.65" rx="10.84" ry="10.84"/><rect class="cls-228" x="408.24" y="511.97" width="344.76" height="105.65" rx="10.81" ry="10.81"/><rect class="cls-229" x="408.2" y="511.94" width="344.76" height="105.65" rx="10.79" ry="10.79"/><rect class="cls-230" x="408.17" y="511.9" width="344.76" height="105.65" rx="10.77" ry="10.77"/><rect class="cls-231" x="408.14" y="511.86" width="344.76" height="105.65" rx="10.74" ry="10.74"/><rect class="cls-232" x="408.1" y="511.83" width="344.76" height="105.65" rx="10.72" ry="10.72"/><rect class="cls-233" x="408.07" y="511.79" width="344.76" height="105.65" rx="10.7" ry="10.7"/><rect class="cls-234" x="408.03" y="511.75" width="344.76" height="105.65" rx="10.68" ry="10.68"/><rect class="cls-235" x="408" y="511.72" width="344.76" height="105.65" rx="10.65" ry="10.65"/><rect class="cls-236" x="407.97" y="511.68" width="344.76" height="105.65" rx="10.63" ry="10.63"/><rect class="cls-237" x="407.93" y="511.65" width="344.76" height="105.65" rx="10.61" ry="10.61"/><rect class="cls-238" x="407.9" y="511.61" width="344.76" height="105.65" rx="10.58" ry="10.58"/><rect class="cls-239" x="407.87" y="511.57" width="344.76" height="105.65" rx="10.56" ry="10.56"/><rect class="cls-240" x="407.83" y="511.54" width="344.76" height="105.65" rx="10.54" ry="10.54"/><rect class="cls-241" x="407.8" y="511.5" width="344.76" height="105.65" rx="10.51" ry="10.51"/><rect class="cls-242" x="407.76" y="511.46" width="344.76" height="105.65" rx="10.49" ry="10.49"/><rect class="cls-243" x="407.73" y="511.43" width="344.76" height="105.65" rx="10.47" ry="10.47"/><rect class="cls-244" x="407.7" y="511.39" width="344.76" height="105.65" rx="10.45" ry="10.45"/><rect class="cls-245" x="407.66" y="511.35" width="344.76" height="105.65" rx="10.42" ry="10.42"/><rect class="cls-246" x="407.63" y="511.32" width="344.76" height="105.65" rx="10.4" ry="10.4"/><rect class="cls-247" x="407.59" y="511.28" width="344.76" height="105.65" rx="10.38" ry="10.38"/><rect class="cls-248" x="407.56" y="511.25" width="344.76" height="105.65" rx="10.35" ry="10.35"/><rect class="cls-249" x="407.53" y="511.21" width="344.76" height="105.65" rx="10.33" ry="10.33"/><rect class="cls-250" x="407.49" y="511.17" width="344.76" height="105.65" rx="10.31" ry="10.31"/><rect class="cls-251" x="407.46" y="511.14" width="344.76" height="105.65" rx="10.28" ry="10.28"/><rect class="cls-252" x="407.42" y="511.1" width="344.76" height="105.65" rx="10.26" ry="10.26"/><rect class="cls-253" x="407.39" y="511.06" width="344.76" height="105.65" rx="10.24" ry="10.24"/><rect class="cls-254" x="407.36" y="511.03" width="344.76" height="105.65" rx="10.22" ry="10.22"/><rect class="cls-255" x="407.32" y="510.99" width="344.76" height="105.65" rx="10.19" ry="10.19"/><rect class="cls-256" x="407.29" y="510.96" width="344.76" height="105.65" rx="10.17" ry="10.17"/><rect class="cls-257" x="407.25" y="510.92" width="344.76" height="105.65" rx="10.15" ry="10.15"/><rect class="cls-258" x="407.22" y="510.88" width="344.76" height="105.65" rx="10.12" ry="10.12"/><rect class="cls-259" x="407.19" y="510.85" width="344.76" height="105.65" rx="10.1" ry="10.1"/><rect class="cls-260" x="407.15" y="510.81" width="344.76" height="105.65" rx="10.08" ry="10.08"/><rect class="cls-261" x="407.12" y="510.77" width="344.76" height="105.65" rx="10.05" ry="10.05"/><rect class="cls-262" x="407.08" y="510.74" width="344.76" height="105.65" rx="10.03" ry="10.03"/><rect class="cls-263" x="407.05" y="510.7" width="344.76" height="105.65" rx="10.01" ry="10.01"/><path class="cls-264" d="M417,510.67H741.79a10,10,0,0,1,10,10v85.68a10,10,0,0,1-10,10H417a10,10,0,0,1-10-10V520.65A10,10,0,0,1,417,510.67Z"/><rect class="cls-265" x="406.98" y="510.63" width="344.76" height="105.65" rx="9.96" ry="9.96"/><rect class="cls-266" x="406.95" y="510.59" width="344.76" height="105.65" rx="9.94" ry="9.94"/><rect class="cls-267" x="406.92" y="510.56" width="344.76" height="105.65" rx="9.92" ry="9.92"/><rect class="cls-268" x="406.88" y="510.52" width="344.76" height="105.65" rx="9.89" ry="9.89"/><rect class="cls-269" x="406.85" y="510.48" width="344.76" height="105.65" rx="9.87" ry="9.87"/><rect class="cls-270" x="406.81" y="510.45" width="344.76" height="105.65" rx="9.85" ry="9.85"/><rect class="cls-271" x="406.78" y="510.41" width="344.76" height="105.65" rx="9.82" ry="9.82"/><rect class="cls-272" x="406.75" y="510.38" width="344.76" height="105.65" rx="9.8" ry="9.8"/><rect class="cls-273" x="406.71" y="510.34" width="344.76" height="105.65" rx="9.78" ry="9.78"/><rect class="cls-274" x="406.68" y="510.3" width="344.76" height="105.65" rx="9.75" ry="9.75"/><rect class="cls-275" x="406.64" y="510.27" width="344.76" height="105.65" rx="9.73" ry="9.73"/><rect class="cls-276" x="406.61" y="510.23" width="344.76" height="105.65" rx="9.71" ry="9.71"/><rect class="cls-277" x="406.58" y="510.19" width="344.76" height="105.65" rx="9.69" ry="9.69"/><rect class="cls-278" x="406.54" y="510.16" width="344.76" height="105.65" rx="9.66" ry="9.66"/><rect class="cls-279" x="406.51" y="510.12" width="344.76" height="105.65" rx="9.64" ry="9.64"/><rect class="cls-280" x="406.47" y="510.09" width="344.76" height="105.65" rx="9.62" ry="9.62"/><rect class="cls-281" x="406.44" y="510.05" width="344.76" height="105.65" rx="9.59" ry="9.59"/><rect class="cls-282" x="406.41" y="510.01" width="344.76" height="105.65" rx="9.57" ry="9.57"/><rect class="cls-283" x="406.37" y="509.98" width="344.76" height="105.65" rx="9.55" ry="9.55"/><rect class="cls-284" x="406.34" y="509.94" width="344.76" height="105.65" rx="9.52" ry="9.52"/><rect class="cls-285" x="406.3" y="509.9" width="344.76" height="105.65" rx="9.5" ry="9.5"/><rect class="cls-286" x="406.27" y="509.87" width="344.76" height="105.65" rx="9.48" ry="9.48"/><rect class="cls-287" x="406.24" y="509.83" width="344.76" height="105.65" rx="9.46" ry="9.46"/><rect class="cls-288" x="406.2" y="509.8" width="344.76" height="105.65" rx="9.43" ry="9.43"/><rect class="cls-289" x="406.17" y="509.76" width="344.76" height="105.65" rx="9.41" ry="9.41"/><rect class="cls-57" x="406.13" y="509.72" width="344.76" height="105.65" rx="9.39" ry="9.39"/></g><rect class="cls-299" x="406.12" y="509.77" width="344.76" height="105.65" rx="9.39" ry="9.39"/><path class="cls-19" d="M528,564.85v1.08a2.83,2.83,0,0,0,2.52,3.07h175a2.83,2.83,0,0,0,2.52-3.07v-1.08a2.83,2.83,0,0,0-2.52-3.07h-175A2.83,2.83,0,0,0,528,564.85Z" transform="translate(-8.86)"/><path class="cls-19" d="M530.48,585.51h175a2.83,2.83,0,0,0,2.52-3.07v-1.08a2.83,2.83,0,0,0-2.52-3.07h-175a2.83,2.83,0,0,0-2.52,3.07v1.08A2.83,2.83,0,0,0,530.48,585.51Z" transform="translate(-8.86)"/><path class="cls-19" d="M530.48,602H634.57a2.83,2.83,0,0,0,2.52-3.07v-1.08a2.83,2.83,0,0,0-2.52-3.07H530.48a2.83,2.83,0,0,0-2.52,3.07v1.08A2.83,2.83,0,0,0,530.48,602Z" transform="translate(-8.86)"/><polygon class="cls-300" points="543.39 531.53 538.59 521.82 533.8 531.53 523.08 533.09 530.83 540.65 529 551.33 538.59 546.29 548.18 551.33 546.35 540.65 554.11 533.09 543.39 531.53"/><polygon class="cls-301" points="579.33 531.53 574.53 521.82 569.74 531.53 559.01 533.09 566.77 540.65 564.94 551.33 574.53 546.29 584.12 551.33 582.29 540.65 590.05 533.09 579.33 531.53"/><polygon class="cls-302" points="615.26 531.53 610.47 521.82 605.67 531.53 594.95 533.09 602.71 540.65 600.88 551.33 610.47 546.29 620.06 551.33 618.23 540.65 625.99 533.09 615.26 531.53"/><polygon class="cls-303" points="651.2 531.53 646.41 521.82 641.61 531.53 630.89 533.09 638.65 540.65 636.82 551.33 646.41 546.29 656 551.33 654.17 540.65 661.92 533.09 651.2 531.53"/><path class="cls-57" d="M695.39,526.29l2.59,5.25.9,1.82,2,.29,5.8.84-4.2,4.09L701,540l.34,2,1,5.77-5.19-2.73-1.8-.94-1.8.94-5.19,2.73,1-5.77.34-2-1.45-1.42-4.2-4.09,5.8-.84,2-.29.9-1.82,2.59-5.25m0-8.72-6.05,12.27-13.54,2,9.8,9.55-2.31,13.48,12.11-6.37,12.11,6.37-2.31-13.48,9.8-9.55-13.54-2-6.05-12.27Z" transform="translate(-8.86)"/><circle class="cls-19" cx="459.73" cy="569.81" r="36.2"/><g class="cls-304"><path class="cls-5" d="M487.89,565.13a.82.82,0,0,0-.35-.43.79.79,0,0,0-.46,0,2.68,2.68,0,0,0-1.14.46s0,0,0,0c0-.32,0-.64,0-1a.8.8,0,0,0,0-.21c0-.36,0-.72,0-1.09q0-1.29,0-2.58v-1.52c-.32-6.94-17.49-7.56-17.49-7.56s-17.17.61-17.49,7.56v1.52q0,1.29,0,2.58c0,.37,0,.73,0,1.09a.8.8,0,0,0,0,.21c0,.32,0,.64,0,1,0,0,0,0,0,0a2.68,2.68,0,0,0-1.14-.46.79.79,0,0,0-.46,0,.82.82,0,0,0-.35.43,5.5,5.5,0,0,0-.14,3.67,14,14,0,0,0,1.59,3.38,5.73,5.73,0,0,0,3,2.89,35.63,35.63,0,0,0,3.55,6.22,19.21,19.21,0,0,0,5.85,5.53,10.93,10.93,0,0,0,11.27,0,19.21,19.21,0,0,0,5.85-5.53,35.62,35.62,0,0,0,3.55-6.22,5.73,5.73,0,0,0,3-2.89A14,14,0,0,0,488,568.8,5.5,5.5,0,0,0,487.89,565.13Z" transform="translate(-8.86)"/><path class="cls-3" d="M452.8,568.47s-1.22-3.78.31-5,.46-10.2,2.33-9.74,10,3.55,14.7,2.25,6-3.44,8.13-2.64,5.19,2.83,5.5,6.38,1,4.09,1.57,4.62.19,4,.19,4,4.47-15.7.69-20-6.34-4.77-6.34-4.77S477,536.27,469,537.76s-16.08,8.59-17.61,8.52-1.53-.27-1.53-.27a12.59,12.59,0,0,0,1.15,2.52c.57.8-3.59,10.24.61,18.79C452.38,569.12,452.8,568.47,452.8,568.47Z" transform="translate(-8.86)"/><rect class="cls-5" x="452.02" y="585.15" width="15.48" height="18.7"/><path class="cls-305" d="M497.38,621.72c.09-13,.2-22.73.2-22.73s-15-6.72-20.87-8.11v.39c.37.24.66.52.62.8-.24,1.52-8.4,3.91-8.69,4-.29-.08-8.45-2.48-8.69-4,0-.28.25-.56.62-.8v-.39c-5.84,1.39-20.87,8.11-20.87,8.11l-.1,22.73Z" transform="translate(-8.86)"/></g><polygon class="cls-306" points="728.48 545.36 718.01 524.15 707.54 545.36 684.13 548.76 701.07 565.28 697.07 588.59 718.01 577.58 738.95 588.59 734.95 565.28 751.89 548.76 728.48 545.36"/><path class="cls-307" d="M754.08,596.23c-.16-1.17-.54-2.52-1.59-2.93-.52-.2-1.09-.12-1.62-.28a3.65,3.65,0,0,1-1.33-.88,28.8,28.8,0,0,1-3.94-4.42,46.52,46.52,0,0,0-2.9-3.95,1.34,1.34,0,0,0-.72-.5,1.07,1.07,0,0,0-1,.69c-.57,1.13-.08,2.52.45,3.67a47.59,47.59,0,0,0,2.54,4.77,4.26,4.26,0,0,1,.92,2.8c-.21,1.2-1.39,1.92-1.88,3a4.77,4.77,0,0,0,.23,3.54,6.66,6.66,0,0,0,1.08,2,10.13,10.13,0,0,0,2.3,1.76,21.06,21.06,0,0,1,3.16,2.54,25.69,25.69,0,0,0,3.13,2.92,1.13,1.13,0,0,0,.52.23A1.08,1.08,0,0,0,754,611a10.93,10.93,0,0,0,3.38-3.32,5.24,5.24,0,0,0,1.09-2c.26-1.21.84-1.67.25-2.75s-2.57-2.64-3.48-3.55A5.41,5.41,0,0,1,754.08,596.23Z" transform="translate(-8.86)"/><polygon class="cls-307" points="829.64 948.67 830 943.64 818.24 943.64 818.71 948.67 829.64 948.67"/><polygon class="cls-307" points="907.73 949.06 908.08 943.64 896.59 943.64 897.05 949.06 907.73 949.06"/><path class="cls-308" d="M898.07,960c.19-1,1.15-1.94,2.65-2.69h0l3.57-8.61h13.84l2.46,8.17h0c2,.82,3.38,1.92,3.61,3.13h0v4.58a.79.79,0,0,1-.71.86H898.74a.79.79,0,0,1-.71-.86V960Z" transform="translate(-8.86)"/><path class="cls-309" d="M823.56,948.67s-1.75,3.64-3.42,4.9-21.2,4-22.74,6.72a2.9,2.9,0,0,0,1.24,4.27c.22,0,41,.4,41.39,0s-.15-15.89-.15-15.89Z" transform="translate(-8.86)"/><path class="cls-310" d="M834.92,729.66c1.37-3,2.5-5.09,3.21-6.3,16.39-4.23,61.17-4.73,67.59-2.55a6.35,6.35,0,0,1,1.32.63c.75,1.42,1.5,2.92,2.23,4.5.39.84.77,1.71,1.14,2.59,9.22,21.84,12.85,55.42,13.71,89.62.48,19.35.08,38.89-.71,56.61-1.72,38.82-5.26,68.87-5.26,68.87H904.4c-.08-.79-1-9.26-2.61-22.11-.86-11.62-7.72-102.18-14.84-127.76-7.6-27.34-16.9-27-16.9-27l.19.92a4.8,4.8,0,0,0-1.24-.86l-.16-.09h0a2.72,2.72,0,0,0-.85-.2c-3.91-.19-7.89,14.74-11.58,36-9,51.78-16.21,141.13-16.21,141.13H825.74s-6-79-6.38-120.13C818.88,772.35,829.07,742.53,834.92,729.66Z" transform="translate(-8.86)"/><path class="cls-311" d="M887,793.76c7.11,25.57,14,116.13,14.84,127.76-2.64-21.28-7.08-54.57-12.36-84.85-5.66-32.49-12.28-61.5-18.69-68.53-.17-.18-.33-.35-.5-.5l-.19-.92S879.35,766.42,887,793.76Z" transform="translate(-8.86)"/><path class="cls-312" d="M887,793.76c7.11,25.57,14,116.13,14.84,127.76-2.64-21.28-7.08-54.57-12.36-84.85-5.66-32.49-12.28-61.5-18.69-68.53-.17-.18-.33-.35-.5-.5l-.19-.92S879.35,766.42,887,793.76Z" transform="translate(-8.86)"/><polygon class="cls-307" points="860.29 602.85 863.24 616.75 879.5 616.02 881.86 593.33 863.24 594.64 860.29 602.85"/><path class="cls-307" d="M864.16,571.75c-.41-4.23,1.63-5,4.3-4.81,2.49.2,5.52,1.29,7.63,1.32a49.15,49.15,0,0,1,6.56.67c3.77.56,4.63,4.35,4.74,6.8,0,0,0,.09,0,.13.08,2.34-.45,7.76.07,9.66s3.66-6.08,6.95-6.18a4.1,4.1,0,0,1,2.14.37,4.22,4.22,0,0,1,2.21,3.94,8.45,8.45,0,0,1-3.07,5.6c-1.59,1.45-3.44,2.57-5,4.08-3.08,3-4.8,7.47-8.27,10-3.9,2.81-9.43,2.4-13.3-.45s-6.11-7.78-6.45-12.74C862.28,583.85,864.77,578,864.16,571.75Z" transform="translate(-8.86)"/><path class="cls-307" d="M877.9,571.22a31.57,31.57,0,0,1-9.43-4.28c2.49.2,5.52,1.29,7.63,1.32a49.15,49.15,0,0,1,6.56.67c3.77.56,4.63,4.35,4.74,6.8,0,0,0,.09,0,.13C886.24,573.76,882.72,572.53,877.9,571.22Z" transform="translate(-8.86)"/><path class="cls-312" d="M831.92,737s1.88,11.19,48.29,11.43c28,.62,32.15-2.86,33-5s2.47-5.59.24-7.58S835,731.4,831.92,737Z" transform="translate(-8.86)"/><path class="cls-313" d="M913.74,690.85l-.3,19.26c.37,3.29.71,6.53.95,9.57,1,13,2.17,20.24-7.68,22.53-14.54,3.39-91.3,9.42-75.65-18.11,5-8.82,9.33-42.53,9.54-57.33v-.13a26.28,26.28,0,0,0,0-2.69,16,16,0,0,0-.37-3.38c0-.09,0-.19-.07-.26-2.06-5.78-18.49,11.93-39.38,4a32.9,32.9,0,0,1-5-2.49c-5.47-3.25-11.27-8.33-16.82-14q-1.49-1.53-3-3.11c-13.7-14.73-24.44-34.56-24.44-34.56s2.39-7.47,7.14-7.27c.77,0,34.93,43.73,56.16,27.83s26.58-20.59,27.74-21.32c2.12-1.34,6.89-2.66,12.12-2l.88.13.06,0c1.74-.21,28.3,3.81,28.3,3.81,2.16.15,6.45.48,11.16,1l.61.06c5.3.58,10.92,2.59,14.85,2.43.56,0,.54-.08.94,0l.16.05s12.77,4,17.45,26.39c0,0,11.83,39.79,4.89,45.94a17.08,17.08,0,0,1-8.42,3.7h0a37.21,37.21,0,0,1-11.79,0Z" transform="translate(-8.86)"/><path class="cls-314" d="M800.75,664.28a32.88,32.88,0,0,1-5-2.49c-5.47-3.25-11.27-8.33-16.82-14q-1.49-1.53-3-3.11c3,2.46,10,7.33,24.11,14.24,21.13,10.34,38.34-13,38.34-13l1.83,14.64c0-.09,0-.19-.07-.26C838.08,654.52,821.65,672.23,800.75,664.28Z" transform="translate(-8.86)"/><path class="cls-1" d="M870.74,768.14a12.61,12.61,0,0,0-1.74-1.36A5.55,5.55,0,0,1,870.74,768.14Z" transform="translate(-8.86)"/><path class="cls-315" d="M869,766.78l-.16-.08h0Z" transform="translate(-8.86)"/><path class="cls-9" d="M869,766.78l-.16-.08h0Z" transform="translate(-8.86)"/><path class="cls-9" d="M920.93,685.78c1.68,2,3.25,3.7,4.59,5.1a37.21,37.21,0,0,1-11.79,0l-.49-41.16S915.76,679.66,920.93,685.78Z" transform="translate(-8.86)"/><path class="cls-3" d="M861.27,548.85a11.88,11.88,0,0,1,11-4.29,5.25,5.25,0,0,1,2.58,1.09,8,8,0,0,1,1.38,1.82,24.31,24.31,0,0,0,7.43,7.42c3.69,2.35,7.94,3.65,11.89,5.54,2.28,1.09,4.58,2.5,5.71,4.75,1,2,2.39,5.4,2.22,8.62-.07,1.23.07,1.91,0,2.88-.73,5.74-1.09,8.53-3.43,13.17a22.84,22.84,0,0,1-4.09,5c-1.59,1.32-1.85,1.69-4.06,3.47a16.49,16.49,0,0,1-2.57,2c-3.28,2.2-9.9,1.9-13.18.22-3.5-1.8-6.61-9.56-6.48-10.93s2.38-3.09,2.78-6.76-.53-3.52-2.51-1.29-1.39.72-2.31-4.89a17.82,17.82,0,0,1-.27-4.69,19.36,19.36,0,0,1-8.6-11.51A14,14,0,0,1,861.27,548.85Z" transform="translate(-8.86)"/></g></g></svg>